<?xml version="1.0" standalone="no"?>
<!DOCTYPE svg PUBLIC "-//W3C//DTD SVG 1.1//EN" "http://www.w3.org/Graphics/SVG/1.1/DTD/svg11.dtd" >
<svg>
<metadata>
Created by FontForge 20090914 at Thu Feb 23 20:43:39 2012
 By root
Designed by David Chung dvchung@hotmail.com  2002
</metadata>
<defs>
<font id="01Digit" horiz-adv-x="564" >
  <font-face 
    font-family="01 Digit"
    font-weight="400"
    font-stretch="normal"
    units-per-em="1000"
    panose-1="0 0 4 0 0 0 0 0 0 0"
    ascent="750"
    descent="-250"
    x-height="671"
    cap-height="676"
    bbox="-111 -21 704 795"
    underline-thickness="17"
    underline-position="-103"
    unicode-range="U+0020-U+007E"
  />
<missing-glyph horiz-adv-x="454" 
d="M-3 0h376v795h-376v-795zM61 63v670h248v-670h-248z" />
    <glyph glyph-name=".notdef" horiz-adv-x="454" 
d="M-3 0h376v795h-376v-795zM61 63v670h248v-670h-248z" />
    <glyph glyph-name=".null" horiz-adv-x="0" 
 />
    <glyph glyph-name="nonmarkingreturn" horiz-adv-x="79" 
 />
    <glyph glyph-name="space" unicode=" " horiz-adv-x="278" 
 />
    <glyph glyph-name="space" unicode="&#xa0;" horiz-adv-x="278" 
 />
    <glyph glyph-name="exclam" unicode="!" horiz-adv-x="141" 
d="M48 649h4h6h9h4h5h6h32h11v21v6v27v5v19h-5h-8h-5h-7h-28h-5h-19v-78zM48 548h6h6h7h7h27h13h11v5v6v6v7v7v27v5v19h-5h-8h-5h-7h-28h-5h-19v-82zM48 449h6h6h7h7h27h13h11v7v4v8v5v8v3v33v13h-5h-8h-5h-7h-28h-5h-19v-81zM48 348h6h6h7h7h27h13h11v7v5v8v5v6v5v33v12h-5
h-8h-5h-7h-28h-5h-19v-81zM48 250h6h6h7h7h27h13h11v6v18v8v5v7v4v33h-5h-8h-5h-7h-28h-5h-19v-81zM48 52h4h6h9h4h5h6h32h11v21v6v29v4v20h-5h-8h-5h-7h-28h-5h-19v-80z" />
    <glyph glyph-name="quotedbl" unicode="&#x22;" horiz-adv-x="251" 
d="M84 545h19h8h28h12h13v8v18v7v5v6v5v32h-23h-6h-27h-5h-19v-81zM-24 545h19h8h28h12h12v8v18v7v5v6v5v32h-21h-7h-28h-4h-19v-81z" />
    <glyph glyph-name="numbersign" unicode="#" 
d="M146 539h6h75v6v62v13h-6h-75v-81zM356 539h8h73v6v5v57v13h-5h-76v-81zM43 440h67h12v7v74h-79v-81zM146 440h6h75v12v69h-6h-75v-81zM252 440h5h76v7v5v69h-6h-75v-81zM356 440h8h73v7v5v69h-5h-76v-81zM463 440h5h76v7v5v69h-7h-74v-81zM146 340h6h62h13v81h-6h-75
v-81zM356 340h69h12v6v75h-5h-76v-81zM43 240h67h12v7v74h-79v-81zM146 240h6h75v7v6v57v11h-6h-75v-81zM252 240h5h6h56h14v7v74h-6h-75v-81zM356 240h81v7v74h-5h-76v-81zM463 240h81v7v74h-7h-74v-81zM146 142h6h62h13v79h-6h-75v-79zM356 142h8h73v6v5v58v10h-5h-76v-79
z" />
    <glyph glyph-name="dollar" unicode="$" 
d="M238 599h8h3h8h6h7h4h32h13v21v6v28v5v20h-6h-18h-8h-5h-6h-5h-33v-80zM133 499h16h8h5h4h8h28h12v5v6v7v6v7v27v5v19h-7h-17h-8h-6h-6h-4h-33v-82zM238 499h17h6h6h6h6h29h11v5v6v7v6v7v27v5v19h-6h-18h-8h-5h-6h-5h-33v-82zM344 499h16h7h6h4h7h29h12v5v6v7v6v7v27v5
v19h-7h-18h-8h-5h-6h-5h-32v-82zM449 499h6h18h8h5h6h6h32v17v6v6v5v6v30v12h-6h-18h-8h-6h-6h-5h-32v-82zM30 400h6h4h9h4h7h5h32h12v7v17v9v4v7v5v32h-22h-6h-28h-4h-19v-81zM238 400h8h3h8h6h7h4h32h13v7v17v9v4v7v5v32h-6h-18h-8h-5h-6h-5h-33v-81zM133 300h6h18h9h4h6
h6h32v6v5v8v5v6v5v33v13h-7h-17h-8h-6h-6h-4h-33v-81zM238 300h8h3h8h6h7h4h32h13v6v18v8v5v6v5v33h-6h-18h-8h-5h-6h-5h-33v-81zM344 300h7h4h8h5h6h5h32h14v6v18v8v5v6v5v33h-7h-18h-8h-5h-6h-5h-32v-81zM238 201h8h3h8h6h7h4h32h13v6v18v8v5v7v4v33h-6h-18h-8h-5h-6h-5
h-33v-81zM449 201h6h5h8h5h8h3h33h13v6v18v8v5v7v4v33h-6h-18h-8h-6h-6h-5h-32v-81zM30 100h6h4h9h4h7h5h32h12v8v17v7v6v6v5v32h-22h-6h-28h-4h-19v-81zM133 100h6h18h9h4h6h6h32v8v4v8v5v6v5v32v13h-7h-17h-8h-6h-6h-4h-33v-81zM238 100h8h17h8h5h6h5h32v8v4v8v5v6v5v32
v13h-6h-18h-8h-5h-6h-5h-33v-81zM344 100h7h17h8h5h6h5h33v8v4v8v5v6v5v32v13h-7h-18h-8h-5h-6h-5h-32v-81zM238 4h8h3h8h6h7h4h32h13v20v7v27v5v20h-6h-18h-8h-5h-6h-5h-33v-79z" />
    <glyph glyph-name="percent" unicode="%" horiz-adv-x="587" 
d="M454 598h7h4h8h6h5h6h32h13v20v7v27v5v19h-6h-18h-8h-5h-7h-5h-32v-78zM384 497h16h8h5h5h7h29h11v3v8v6v7v6v27v6v19h-6h-18h-8h-5h-6h-5h-33v-82zM389 184h6h5h8h4h7h6h32h13v6v17v8v5v7v5v33h-7h-18h-8h-5h-6h-5h-32v-81zM243 297h6h6h8h5h6h5h32h13v6v18v8v6v6v5v32
h-5h-18h-9h-5h-6h-5h-33v-81zM174 198h7h17h8h5h7h4h33v7v17v8v6v6v5v32h-7h-18h-8h-4h-7h-5h-32v-81zM104 98h7h17h9h4h7h4h33v6v5v8v5v7v4v33v13h-6h-19h-8h-4h-7h-4h-33v-81zM35 1h21h6h27h14h11v4v6v8v4v8v4v32v13h-21h-7h-27h-5h-19v-79zM301 95h7h4h8h6h5h6h31h14v7
v17v9v4v7v5v32h-6h-18h-8h-5h-7h-5h-32v-81zM387 0h6h6h8h4h7h5h33h12v6v18v8v5v7v5v32h-6h-18h-8h-5h-6h-6h-32v-81zM472 93h9h3h8h6h6h4h33h12v7v17v8v5v6v5v33h-6h-17h-8h-5h-7h-4h-34v-81zM314 398h7h6h8h4h7h5h32h12v6v18v9v5v5v5v33h-5h-19h-8h-4h-7h-5h-33v-81z
M119 597h6h5h8h4h6h7h31h14v6v17v9v5v6v4v34h-7h-18h-8h-5h-5h-7h-31v-81zM31 508h7h5h8h4h6h6h32h13v6v19v8v4v8v4v32h-7h-18h-8h-3h-9h-4h-32v-81zM117 413h7h4h8h5h7h4h32h14v6v18v8v5v6v6v32h-7h-17h-8h-6h-5h-7h-31v-81zM202 506h7h5h8h6h5h5h33h12v7v17v8v6v5v5v33h-5
h-18h-9h-4h-7h-4h-34v-81z" />
    <glyph glyph-name="ampersand" unicode="&#x26;" 
d="M122 595h81v80h-81v-80zM229 595h81v80h-81v-80zM19 496h79v82h-79v-82zM333 496h81v82h-81v-82zM19 396h79v81h-79v-81zM229 396h81v81h-81v-81zM122 296h7h74v81h-81v-81zM19 197h79v81h-79v-81zM229 197h81v81h-81v-81zM439 197h81v81h-81v-81zM19 97h79v81h-79v-81z
M333 97h81v81h-81v-81zM122 -1h81v79h-81v-79zM229 -1h81v79h-81v-79zM439 -1h81v79h-81v-79z" />
    <glyph glyph-name="quotesingle" unicode="'" horiz-adv-x="143" 
d="M-6 544h21h7h28h13h11v5v19v8v4v7v4v34h-22h-5h-28h-5h-20v-81z" />
    <glyph glyph-name="parenleft" unicode="(" horiz-adv-x="248" 
d="M132 597h7h4h9h5h7h4h33h12v21v7v27v5v19h-6h-17h-9h-5h-7h-4h-33v-79zM29 497h6h5h8h4h7h5h32h13v3v8v6v7v6v27v5v20h-22h-6h-29h-4h-19v-82zM29 397h6h5h8h4h7h5h32h13v6v19v7v6v6v5v32h-22h-6h-29h-4h-19v-81zM29 297h6h5h8h4h7h5h32h13v6v17v9v6v6v5v32h-22h-6h-29
h-4h-19v-81zM29 198h21h6h28h12h13v7v5v7v5v7v4v32v14h-22h-6h-29h-4h-19v-81zM29 98h6h5h8h4h7h5h32h13v5v19v8v5v6v5v33h-22h-6h-29h-4h-19v-81zM132 1h7h4h9h5h7h4h33h12v21v6v27v5v19h-6h-17h-9h-5h-7h-4h-33v-78z" />
    <glyph glyph-name="parenright" unicode=")" horiz-adv-x="248" 
d="M76 76h-8h-5h-8h-4h-7h-4h-33h-13v-21v-6v-27v-5v-20h7h18h8h4h8h4h33v79zM179 176h-6h-6h-9h-4h-6h-5h-32h-11v-3v-7v-7v-6v-5v-29v-5v-20h21h6h27h4h21v82zM179 276h-6h-6h-9h-4h-6h-5h-32h-11v-6v-18v-8v-6v-5v-4v-34h21h6h27h4h21v81zM179 376h-6h-6h-9h-4h-6h-5h-32
h-11v-6v-18v-7v-7v-5v-5v-33h21h6h27h4h21v81zM179 476h-22h-6h-27h-13h-11v-7v-5v-8v-5v-6v-5v-32v-13h21h6h27h4h21v81zM179 576h-6h-6h-9h-4h-6h-5h-32h-11v-6v-17v-9v-6v-6v-5v-32h21h6h27h4h21v81zM76 674h-8h-5h-8h-4h-7h-4h-33h-13v-22v-7v-27v-5v-19h7h18h8h4h8h4
h33v80z" />
    <glyph glyph-name="asterisk" unicode="*" 
d="M-38 467h21h6h28h13h12v22v6v27v5v19h-22h-6h-28h-5h-19v-79zM382 467h6h4h8h7h5h5h33h13v22v6v27v5v19h-7h-18h-8h-5h-6h-4h-33v-79zM66 367h17h5h7h5h6h30h11v5v6v6v7v6v28v4v20h-7h-17h-9h-5h-6h-5h-32v-82zM276 367h17h6h7h4h7h29h11v5v6v6v7v6v28v4v20h-6h-17h-8h-7
h-6h-4h-33v-82zM172 267h5h5h8h5h7h5h31h15v7v18v9v4v6v5v32h-7h-18h-8h-6h-5h-5h-32v-81zM66 167h6h19h7h5h6h5h33v7v5v7v6v6v5v32v13h-7h-17h-9h-5h-6h-5h-32v-81zM276 167h7h5h7h6h6h4h33h13v7v18v7v6v6v5v32h-6h-17h-8h-7h-6h-4h-33v-81zM-38 70h21h6h28h13h12v6v3v9v5
v7v3v33v13h-22h-6h-28h-5h-19v-79zM382 70h6h19h8h4h6h5h33v6v6v8v4v7v4v34v10h-7h-18h-8h-5h-6h-4h-33v-79z" />
    <glyph glyph-name="plus" unicode="+" 
d="M210 473h7h5h8h5h6h5h33h12v8v16v8v5v7v5v32h-6h-18h-9h-4h-7h-4h-33v-81zM210 374h7h18h8h4h7h4h33v7v5v8v6v5v4v33v13h-6h-18h-9h-4h-7h-4h-33v-81zM2 274h20h7h27h13h12v6v5v8v5v7v5v32v13h-21h-7h-26h-6h-19v-81zM105 274h7h5h7h5h7h5h32h13v6v18v8v5v8v3v33h-5h-19
h-8h-5h-7h-5h-32v-81zM210 274h7h18h8h4h7h4h33v6v5v8v5v7v5v32v13h-6h-18h-9h-4h-7h-4h-33v-81zM316 274h6h5h8h4h7h6h32h13v6v18v8v5v8v3v33h-6h-19h-8h-4h-7h-5h-32v-81zM420 274h7h18h8h5h7h5h31v6v5v8v5v7v5v32v13h-5h-18h-8h-5h-7h-5h-33v-81zM210 175h7h5h8h5h6h5h33
h12v6v18v8v5v7v5v32h-6h-18h-9h-4h-7h-4h-33v-81zM210 76h7h5h8h5h6h5h33h12v21v6v28v5v21h-6h-18h-9h-4h-7h-4h-33v-81z" />
    <glyph glyph-name="comma" unicode="," horiz-adv-x="167" 
d="M-111 -21h20h7h28h13h11v7v18v8v5v5v6v32h-21h-6h-28h-5h-19v-81zM-87 76h20h8h27h13h12v5v18v9v4v6v5v34h-22h-7h-27h-5h-19v-81z" />
    <glyph glyph-name="hyphen" unicode="-" horiz-adv-x="441" 
d="M68 247v11v45v8h-4h-47h-14v-4v-60h65zM148 247v4v60h-6h-59v-4v-60h65zM230 247v4v60h-6h-4h-45h-10v-4v-60h65zM310 247v4v4v47v9h-6h-14h-45v-4v-60h65zM391 247v4v60h-6h-3h-45h-12v-4v-60h66z" />
    <glyph glyph-name="hyphen" unicode="&#x2010;" horiz-adv-x="441" 
d="M68 247v11v45v8h-4h-47h-14v-4v-60h65zM148 247v4v60h-6h-59v-4v-60h65zM230 247v4v60h-6h-4h-45h-10v-4v-60h65zM310 247v4v4v47v9h-6h-14h-45v-4v-60h65zM391 247v4v60h-6h-3h-45h-12v-4v-60h66z" />
    <glyph glyph-name="period" unicode="." horiz-adv-x="232" 
d="M83 17h21h6h28h13h12v6v17v9v5v6v6v32h-22h-7h-27h-5h-19v-81z" />
    <glyph glyph-name="slash" unicode="/" 
d="M448 598h7h5h8h4h7h4h33h13v20v7v27v5v19h-7h-17h-8h-5h-7h-4h-33v-78zM379 497h15h6h8h4h7h29h12v3v8v6v7v6v27v6v19h-7h-18h-8h-4h-7h-5h-32v-82zM309 398h6h4h9h6h5h5h33h13v6v18v9v5v5v5v33h-7h-18h-8h-5h-6h-4h-33v-81zM238 297h6h5h8h5h6h5h33h13v6v18v8v6v6v5v32
h-8h-17h-8h-5h-7h-4h-32v-81zM168 198h7h17h8h5h7h5h32v7v17v8v6v6v5v32h-7h-17h-8h-5h-7h-5h-32v-81zM99 98h5h18h9h5h5h6h33v6v5v8v5v7v4v33v13h-7h-18h-8h-6h-5h-5h-32v-81zM28 1h22h6h28h12h12v4v6v8v4v8v4v32v13h-21h-7h-27h-5h-20v-79z" />
    <glyph glyph-name="zero" unicode="0" 
d="M138 595h67h12v5v5v9v4v7v5v32v12h-79v-79zM243 595h79v5v5v9v4v7v5v32v12h-79v-79zM348 595h79v7v7v7v6v28v4v20h-79v-79zM32 496h80v21v5v28v4v21h-80v-79zM453 496h80v21v5v28v4v21h-80v-79zM32 395h22h6h27h14h11v5v4v9v5v6v4v34v11h-61h-19v-78zM348 395h79v5v4v9v5
v6v4v34v11h-79v-78zM453 395h6h5h56h13v21v7v27v5v18h-80v-78zM32 296h5h5h8h5h6h6h33h12v21v6v28v4v20h-21h-7h-27h-6h-19v-79zM243 296h79v5v5v56v13h-79v-79zM453 296h6h5h56h13v21v6v28v4v20h-21h-59v-79zM32 195h5h5h8h5h6h6h33h12v22v6v28v5v18h-21h-7h-27h-6h-19v-79
zM138 195h20h7h28h12h12v5v6v7v6v6v4v33v12h-21h-6h-28h-5h-19v-79zM453 195h6h5h8h4h6h6h32h13v22v6v28v5v18h-21h-59v-79zM32 97h22h6h27h14h11v5v5v7v5v7v5v33v12h-21h-7h-27h-6h-19v-79zM453 97h6h5h8h4h6h6h32h13v20v8v27v5v19h-21h-6h-28h-5h-20v-79zM138 -3h20h7h28
h12h12v7v7v7v5v28v6v19h-21h-6h-28h-5h-19v-79zM243 -3h4h6h9h3h7h5h33h12v7v7v7v5v28v6v19h-20h-8h-27h-4h-20v-79zM348 -3h21h6h28h5h19v7v4v8v5v6v4v33v12h-20h-7h-28h-5h-19v-79z" />
    <glyph glyph-name="one" unicode="1" horiz-adv-x="352" 
d="M4 598h68h12v78h-80v-78zM108 598h6h5h70v78h-7h-74v-78zM108 497h16h52h13v3v60v19h-7h-74v-82zM108 398h6h75v6v75h-7h-74v-81zM108 297h6h75v6v7v55v13h-7h-74v-81zM108 198h6h5h56h14v7v17v57h-7h-74v-81zM108 98h6h75v6v5v57v13h-7h-74v-81zM4 1h68h12v4v6v8v48v13
h-80v-79zM108 1h6h5h56h14v54v5v20h-7h-74v-79zM213 1h68h11v54v5v20h-79v-79z" />
    <glyph glyph-name="two" unicode="2" 
d="M134 597h7h5h8h4h7h4h33h13v21v7v27v5v19h-6h-18h-8h-5h-5h-7h-32v-79zM239 597h7h4h9h5h7h4h33h12v21v7v27v5v19h-6h-18h-8h-5h-6h-5h-33v-79zM345 597h7h4h8h5h7h5h31h14v21v7v27v5v19h-7h-18h-8h-4h-6h-6h-32v-79zM31 497h6h5h9h4h6h6h33h10v3v8v6v7v6v27v5v20h-22h-5
h-28h-4h-20v-82zM450 497h7h17h8h6h5h6h32v16v5v7v5v7v28v14h-6h-18h-8h-6h-5h-6h-32v-82zM450 397h7h5h8h4h7h4h33h13v6v19v7v6v6v5v32h-6h-18h-8h-6h-5h-6h-32v-81zM239 297h7h4h9h5h7h4h33h12v6v17v9v6v6v5v32h-6h-18h-8h-5h-6h-5h-33v-81zM345 297h7h4h8h5h7h5h31h14v6
v17v9v6v6v5v32h-7h-18h-8h-4h-6h-6h-32v-81zM134 198h7h5h8h4h7h4h33h13v7v17v8v5v6v6v32h-6h-18h-8h-5h-5h-7h-32v-81zM31 98h6h5h9h4h6h6h33h10v5v19v8v5v6v5v33h-22h-5h-28h-4h-20v-81zM31 1h21h7h26h15h10v4v6v8v3v8v5v32v12h-22h-5h-28h-4h-20v-78zM134 1h7h5h8h4h7h4
h33h13v21v6v27v5v19h-6h-18h-8h-5h-5h-7h-32v-78zM239 1h7h4h9h5h7h4h33h12v21v6v27v5v19h-6h-18h-8h-5h-6h-5h-33v-78zM345 1h7h4h8h5h7h5h31h14v21v6v27v5v19h-7h-18h-8h-4h-6h-6h-32v-78zM450 1h7h17h8h6h5h6h32v6v5v8v4v7v5v32v11h-6h-18h-8h-6h-5h-6h-32v-78z" />
    <glyph glyph-name="three" unicode="3" 
d="M31 598h21h34h14h11v5v7v6v39v20h-21h-35h-4h-20v-77zM136 598h21h8h27h13h11v4v5v8v47v13h-20h-7h-28h-4h-21v-77zM242 598h21h7h27h5h20v4v5v8v47v13h-21h-7h-29h-3h-20v-77zM346 598h22h7h28h5h19v5v7v6v39v20h-21h-6h-28h-5h-21v-77zM453 598h20h8h27h5h19v5v7v6v39
v20h-21h-6h-28h-5h-19v-77zM346 497h22h7h28h5h19v3v7v7v5v11v32v14h-21h-6h-28h-5h-21v-79zM242 396h5h5h8h5h6h6h32h13v21v7v27v5v20h-21h-7h-29h-3h-20v-80zM346 297h22h7h28h5h19v5v5v8v4v8v4v33v12h-21h-6h-28h-5h-21v-79zM453 197h4h6h8h4h6h6h33h12v20v8v27v4v20h-21
h-6h-28h-5h-19v-79zM31 98h21h7h27h14h11v5v5v8v5v6v5v33v11h-21h-6h-29h-4h-20v-78zM453 98h4h6h8h4h6h6h33h12v21v6v28v4v19h-21h-6h-28h-5h-19v-78zM136 -1h21h8h27h13h11v6v7v7v7v26v6v18h-20h-7h-28h-4h-21v-77zM242 -1h5h5h8h5h6h6h32h13v6v7v7v7v26v6v18h-21h-7h-29
h-3h-20v-77zM346 -1h22h7h28h5h19v5v5v8v5v6v5v34v9h-21h-6h-28h-5h-21v-77z" />
    <glyph glyph-name="four" unicode="4" 
d="M344 595h7h4h57h13v80h-7h-74v-80zM238 495h17h53h11v4v79h-5h-76v-83zM344 495h70h11v4v79h-7h-74v-83zM133 396h81v6v75h-6h-75v-81zM344 396h7h4h57h13v6v75h-7h-74v-81zM31 295h5h73v7v74h-78v-81zM344 295h7h4h57h13v7v74h-7h-74v-81zM31 197h78v6v75h-78v-81z
M133 197h81v81h-6h-75v-81zM238 197h68h13v6v75h-5h-19h-57v-81zM344 197h7h4h57h13v6v75h-7h-74v-81zM449 197h7h4h8h5h8h4h32h13v6v75h-6h-18h-8h-5h-6h-6h-32v-81zM344 95h7h74v8v5v68h-7h-74v-81zM344 -1h7h4h57h13v60v19h-7h-74v-79z" />
    <glyph glyph-name="five" unicode="5" 
d="M31 598h68h11v78h-60h-19v-78zM133 598h7h5h69v78h-5h-76v-78zM239 598h7h61h13v78h-6h-75v-78zM344 598h7h5h69v78h-6h-75v-78zM450 598h6h5h57h13v78h-6h-75v-78zM31 497h6h5h8h49h11v3v8v71h-60h-19v-82zM31 398h6h5h8h49h11v6v75h-60h-19v-81zM133 398h7h74v6v75h-5
h-76v-81zM239 398h7h74v6v75h-6h-75v-81zM344 398h7h5h69v6v75h-6h-75v-81zM450 297h6h5h57h13v6v75h-6h-75v-81zM450 198h6h5h57h13v7v74h-6h-75v-81zM31 98h6h62h11v6v75h-79v-81zM450 98h6h5h57h13v6v75h-6h-75v-81zM133 1h7h5h57h12v79h-5h-76v-79zM239 1h7h61h13v79h-6
h-75v-79zM344 1h81v79h-6h-75v-79z" />
    <glyph glyph-name="six" unicode="6" 
d="M239 598h7h4h9h5h7h4h33h12v20v7v27v5v19h-6h-18h-8h-5h-6h-5h-33v-78zM345 598h7h4h8h5h7h5h31h14v20v7v27v5v19h-7h-18h-8h-4h-6h-6h-32v-78zM134 497h16h7h7h4h7h29h11v3v8v6v7v6v27v6v19h-6h-18h-8h-5h-5h-7h-32v-82zM31 398h6h5h9h4h6h6h33h10v6v18v9v5v5v5v33h-22
h-5h-28h-4h-20v-81zM31 297h6h5h9h4h6h6h33h10v6v18v8v6v6v5v32h-22h-5h-28h-4h-20v-81zM134 297h7h17h8h7h5h5h32v6v7v7v4v7v5v32v13h-6h-18h-8h-5h-5h-7h-32v-81zM239 297h7h4h9h5h7h4h33h12v6v18v8v6v6v5v32h-6h-18h-8h-5h-6h-5h-33v-81zM345 297h7h4h8h5h7h5h31h14v6v18
v8v6v6v5v32h-7h-18h-8h-4h-6h-6h-32v-81zM31 198h21h7h26h15h10v7v5v7v5v7v5v32v13h-22h-5h-28h-4h-20v-81zM450 198h7h5h8h4h7h4h33h13v7v17v8v6v6v5v32h-6h-18h-8h-6h-5h-6h-32v-81zM31 98h6h5h9h4h6h6h33h10v6v18v8v5v6v7v31h-22h-5h-28h-4h-20v-81zM450 98h7h5h8h4h7h4
h33h13v6v18v8v5v6v7v31h-6h-18h-8h-6h-5h-6h-32v-81zM134 1h7h5h8h4h7h4h33h13v21v6v27v5v20h-6h-18h-8h-5h-5h-7h-32v-79zM239 1h7h4h9h5h7h4h33h12v21v6v27v5v20h-6h-18h-8h-5h-6h-5h-33v-79zM345 1h7h4h8h5h7h5h31h14v21v6v27v5v20h-7h-18h-8h-4h-6h-6h-32v-79z" />
    <glyph glyph-name="seven" unicode="7" 
d="M31 595h21h7h26h15h10v22v7v28v4v19h-22h-5h-28h-4h-20v-80zM134 595h7h5h8h4h7h4h33h13v22v7v28v4v19h-6h-18h-8h-5h-5h-7h-32v-80zM239 595h7h4h9h5h7h4h33h12v22v7v28v4v19h-6h-18h-8h-5h-6h-5h-33v-80zM345 595h7h4h8h5h7h5h31h14v22v7v28v4v19h-7h-18h-8h-4h-6h-6
h-32v-80zM450 595h7h5h8h4h7h4h33h13v22v7v28v4v19h-6h-18h-8h-6h-5h-6h-32v-80zM450 496h7h17h8h6h5h6h32v16v5v7v6v6v28v14h-6h-18h-8h-6h-5h-6h-32v-82zM450 396h7h5h8h4h7h4h33h13v6v19v7v5v7v5v32h-6h-18h-8h-6h-5h-6h-32v-81zM239 296h7h4h9h5h7h4h33h12v6v17v9v6v6v5
v32h-6h-18h-8h-5h-6h-5h-33v-81zM345 296h7h4h8h5h7h5h31h14v6v17v9v6v6v5v32h-7h-18h-8h-4h-6h-6h-32v-81zM239 197h7h4h9h5h7h4h33h12v7v17v8v5v6v7v31h-6h-18h-8h-5h-6h-5h-33v-81zM239 97h7h18h8h5h6h5h32v6v5v8v5v7v4v34v12h-6h-18h-8h-5h-6h-5h-33v-81zM239 -1h7h4h9
h5h7h4h33h12v22v6v28v4v19h-6h-18h-8h-5h-6h-5h-33v-79z" />
    <glyph glyph-name="eight" unicode="8" 
d="M133 597h7h4h9h4h8h4h33h12v21v7v27v5v19h-6h-18h-8h-6h-5h-5h-33v-79zM238 597h8h4h7h6h7h4h32h13v21v7v27v5v19h-5h-19h-8h-4h-7h-5h-33v-79zM344 597h7h4h9h4h7h4h33h13v21v7v27v5v19h-7h-18h-8h-5h-5h-6h-32v-79zM31 497h5h5h8h5h6h5h33h11v3v8v6v7v6v27v5v20h-21h-6
h-28h-5h-18v-82zM449 497h7h17h8h6h6h5h32v16v5v7v5v7v28v14h-6h-18h-8h-5h-6h-6h-32v-82zM31 397h5h5h8h5h6h5h33h11v6v19v7v6v6v5v32h-21h-6h-28h-5h-18v-81zM449 397h7h4h8h5h8h4h32h13v6v19v7v6v6v5v32h-6h-18h-8h-5h-6h-6h-32v-81zM133 297h7h17h9h5h5h6h32v6v5v8v4v8
v5v32v13h-6h-18h-8h-6h-5h-5h-33v-81zM238 297h8h4h7h6h7h4h32h13v6v17v9v6v6v5v32h-5h-19h-8h-4h-7h-5h-33v-81zM344 297h7h4h9h4h7h4h33h13v6v17v9v6v6v5v32h-7h-18h-8h-5h-5h-6h-32v-81zM31 198h20h7h27h13h11v7v5v7v5v7v4v32v14h-21h-6h-28h-5h-18v-81zM449 198h7h4h8h5
h8h4h32h13v7v17v8v5v6v6v32h-6h-18h-8h-5h-6h-6h-32v-81zM31 98h5h5h8h5h6h5h33h11v5v19v8v5v6v5v33h-21h-6h-28h-5h-18v-81zM449 98h7h4h8h5h8h4h32h13v5v19v8v5v6v5v33h-6h-18h-8h-5h-6h-6h-32v-81zM133 1h7h4h9h4h8h4h33h12v21v6v27v5v19h-6h-18h-8h-6h-5h-5h-33v-78z
M238 1h8h4h7h6h7h4h32h13v21v6v27v5v19h-5h-19h-8h-4h-7h-5h-33v-78zM344 1h7h4h9h4h7h4h33h13v21v6v27v5v19h-7h-18h-8h-5h-5h-6h-32v-78z" />
    <glyph glyph-name="nine" unicode="9" 
d="M133 595h7h5h9h4h7h4h33h12v22v7v28v4v19h-5h-18h-9h-5h-5h-6h-33v-80zM239 595h7h4h8h5h7h5h32h13v22v7v28v4v19h-6h-19h-7h-5h-6h-5h-33v-80zM344 595h7h5h8h5h6h5h32h13v22v7v28v4v19h-6h-18h-8h-5h-6h-6h-32v-80zM31 496h6h5h8h5h5h6h33h11v4v7v6v6v7v27v5v20h-22h-5
h-28h-5h-19v-82zM450 496h6h18h8h6h5h5h33v16v5v7v6v6v28v14h-6h-19h-8h-5h-5h-6h-32v-82zM31 396h6h5h8h5h5h6h33h11v6v19v7v5v7v5v32h-22h-5h-28h-5h-19v-81zM450 396h6h5h8h5h7h5h32h13v6v19v7v5v7v5v32h-6h-19h-8h-5h-5h-6h-32v-81zM133 296h7h18h8h6h5h5h32v6v5v8v4v9
v4v32v13h-5h-18h-9h-5h-5h-6h-33v-81zM239 296h7h4h8h5h7h5h32h13v6v17v9v6v6v5v32h-6h-19h-7h-5h-6h-5h-33v-81zM344 296h7h5h8h5h6h5h32h13v6v17v9v6v6v5v32h-6h-18h-8h-5h-6h-6h-32v-81zM450 296h6h5h8h5h7h5h32h13v6v17v9v6v6v5v32h-6h-19h-8h-5h-5h-6h-32v-81zM450 197
h6h5h8h5h7h5h32h13v7v17v8v5v6v7v31h-6h-19h-8h-5h-5h-6h-32v-81zM450 97h6h5h8h5h7h5h32h13v6v18v9v4v6v5v33h-6h-19h-8h-5h-5h-6h-32v-81zM133 -1h7h5h9h4h7h4h33h12v22v6v28v4v19h-5h-18h-9h-5h-5h-6h-33v-79zM239 -1h7h4h8h5h7h5h32h13v22v6v28v4v19h-6h-19h-7h-5h-6h-5
h-33v-79zM344 -1h7h5h8h5h6h5h32h13v22v6v28v4v19h-6h-18h-8h-5h-6h-6h-32v-79z" />
    <glyph glyph-name="colon" unicode=":" horiz-adv-x="247" 
d="M-104 482h20h7h27h14h11v8v18v8v5v5v5v32h-22h-6h-26h-6h-19v-81zM-1 482h7h5h8h4h7h5h32h12v8v18v8v5v5v5v32h-21h-7h-28h-4h-20v-81zM-104 383h6h4h9h6h5h5h33h11v8v18v7v5v6v6v31h-22h-6h-26h-6h-19v-81zM-1 383h21h7h28h12h12v8v18v7v5v6v6v31h-21h-7h-28h-4h-20v-81
zM-104 181h20h7h27h14h11v8v17v7v6v6v5v32h-22h-6h-26h-6h-19v-81zM-1 181h21h7h28h12h12v8v4v8v5v6v5v32v13h-21h-7h-28h-4h-20v-81zM-104 85h20h7h27h14h11v4v5v9v5v5v5v33v13h-22h-6h-26h-6h-19v-79zM-1 85h21h7h28h12h12v4v5v9v5v5v5v33v13h-21h-7h-28h-4h-20v-79z" />
    <glyph glyph-name="semicolon" unicode=";" horiz-adv-x="247" 
d="M-104 481h20h7h27h13h12v9v17v7v5v7v5v31h-22h-6h-27h-6h-18v-81zM-2 481h7h6h8h4h7h5h32h11v9v17v7v5v7v5v31h-20h-7h-28h-4h-21v-81zM-104 383h6h4h8h6h5h6h32h12v8v18v7v5v6v5v32h-22h-6h-27h-6h-18v-81zM-2 383h22h7h27h13h11v8v18v7v5v6v5v32h-20h-7h-28h-4h-21v-81
zM-104 181h20h7h27h13h12v7v18v7v6v6v4v33h-22h-6h-27h-6h-18v-81zM-2 181h22h7h27h13h11v7v5v7v6v6v5v32v13h-20h-7h-28h-4h-21v-81zM-18 -18h22h7h27h13h10v5v5v9v4v7v5v32v13h-20h-7h-28h-3h-21v-80zM-2 85h22h7h27h13h11v4v5v8v5v5v5v32v15h-20h-7h-28h-4h-21v-79z
M-104 85h20h7h27h13h12v4v5v8v5v5v5v32v15h-22h-6h-27h-6h-18v-79z" />
    <glyph glyph-name="less" unicode="&#x3c;" horiz-adv-x="352" 
d="M199 459h21h6h29h11h13v6v5v8v4v8v5v32v13h-22h-6h-28h-4h-20v-81zM94 360h6h18h8h5h7h4h33v7v5v7v5v7v4v32v14h-7h-19h-7h-4h-7h-5h-32v-81zM-10 260h22h6h27h13h10v5v6v8v5v7v4v33v13h-19h-7h-28h-4h-20v-81zM94 160h6h18h8h5h7h4h33v7v6v8v3v8v5v32v12h-7h-19h-7h-4
h-7h-5h-32v-81zM199 62h21h6h29h11h13v5v4v8v6v7v3v34v12h-22h-6h-28h-4h-20v-79z" />
    <glyph glyph-name="equal" unicode="=" 
d="M-30 368h22h5h30h12h11v7v17v8v6v6v5v32h-21h-7h-27h-5h-20v-81zM75 368h6h18h9h4h6h5h33v7v4v9v4v8v4v32v13h-7h-18h-8h-5h-6h-4h-33v-81zM180 368h6h5h8h5h7h4h32h14v7v17v8v6v6v5v32h-7h-17h-8h-5h-7h-5h-32v-81zM285 368h7h18h8h4h6h6h32v7v4v9v4v8v4v32v13h-6h-18
h-8h-6h-6h-4h-33v-81zM391 368h6h18h8h4h7h5h33v7v4v9v4v8v4v32v13h-8h-17h-8h-5h-7h-4h-32v-81zM-30 68h5h6h7h6h6h4h33h13v22v5v29v5v19h-21h-7h-27h-5h-20v-80zM75 68h6h4h9h5h6h5h33h13v22v5v29v5v19h-7h-18h-8h-5h-6h-4h-33v-80zM180 68h6h18h8h5h7h5h32v8v4v8v5v7v4
v32v12h-7h-17h-8h-5h-7h-5h-32v-80zM285 68h7h18h8h4h6h6h32v22v5v29v5v19h-6h-18h-8h-6h-6h-4h-33v-80zM391 68h6h18h8h4h7h5h33v8v4v8v5v7v4v32v12h-8h-17h-8h-5h-7h-4h-32v-80z" />
    <glyph glyph-name="greater" unicode="&#x3e;" horiz-adv-x="352" 
d="M-46 479h21h6h28h13h12v6v19v8v5v5v6v32h-22h-7h-28h-4h-19v-81zM58 381h6h18h8h4h8h5h32v6v4v9v4v7v5v33v13h-7h-17h-8h-5h-8h-4h-32v-81zM163 279h21h7h27h13h11v8v17v7v6v6v5v32h-21h-7h-26h-5h-20v-81zM58 181h6h18h8h4h8h5h32v7v5v7v6v6v5v32v13h-7h-17h-8h-5h-8h-4
h-32v-81zM-46 83h5h4h8h6h6h5h33h13v20v6v29v4v19h-22h-7h-28h-4h-19v-78z" />
    <glyph glyph-name="question" unicode="?" 
d="M136 597h6h6h9h3h7h6h32h12v21v7v27v5v19h-6h-18h-9h-4h-6h-6h-32v-79zM241 597h7h6h7h4h7h6h32h12v21v7v27v5v19h-6h-18h-8h-4h-7h-5h-33v-79zM346 597h7h6h8h4h6h5h34h11v21v7v27v5v19h-6h-18h-8h-4h-7h-5h-33v-79zM32 497h7h5h8h5h6h5h33h11v3v8v6v7v6v27v5v20h-20h-7
h-28h-5h-20v-82zM452 497h6h18h8h6h7h3h33v16v5v7v5v7v28v14h-6h-19h-8h-3h-7h-6h-32v-82zM32 397h7h5h8h5h6h5h33h11v6v19v7v6v6v5v32h-20h-7h-28h-5h-20v-81zM452 397h6h5h9h4h7h6h32h12v6v19v7v6v6v5v32h-6h-19h-8h-3h-7h-6h-32v-81zM346 297h7h6h8h4h6h5h34h11v6v17v9v6
v6v5v32h-6h-18h-8h-4h-7h-5h-33v-81zM241 198h7h6h7h4h7h6h32h12v7v17v8v5v6v6v32h-6h-18h-8h-4h-7h-5h-33v-81zM241 1h7h6h7h4h7h6h32h12v21v6v27v5v19h-6h-18h-8h-4h-7h-5h-33v-78z" />
    <glyph glyph-name="at" unicode="@" horiz-adv-x="567" 
d="M133 598h7h4h9h4h8h4h33h12v20v7v27v6v20h-6h-18h-8h-6h-5h-5h-33v-80zM238 598h8h4h7h6h7h4h32h13v20v7v27v6v20h-5h-19h-8h-4h-7h-5h-33v-80zM344 598h7h4h9h4h7h4h33h13v20v7v27v6v20h-7h-18h-8h-5h-5h-6h-32v-80zM31 497h5h5h8h5h6h5h33h11v5v6v8v6v6v28v6v18h-21h-6
h-28h-5h-18v-83zM449 497h5h6h7h6h8h27h13h11v17v7v5v5v6v30v13h-5h-6h-7h-6h-8h-27h-5h-19v-83zM31 400h5h5h8h5h6h5h33h11v5v18v9v4v6v5v34h-21h-6h-28h-5h-18v-81zM238 400h8h4h7h6h7h4h32h13v5v18v9v4v6v5v34h-5h-19h-8h-4h-7h-5h-33v-81zM344 400h7h4h9h4h7h4h33h13v5
v18v9v4v6v5v34h-7h-18h-8h-5h-5h-6h-32v-81zM449 400h16h7h7h4h7h29h13v5v18v9v4v6v5v34h-5h-6h-7h-6h-8h-27h-5h-19v-81zM31 298h5h5h8h5h6h5h33h11v7v17v8v5v7v4v33h-21h-6h-28h-5h-18v-81zM238 298h6h18h8h4h7h5h33v7v5v9v3v6v6v32v13h-8h-17h-8h-5h-7h-4h-32v-81z
M449 298h5h6h7h6h8h27h13h11v7v17v8v5v7v4v33h-5h-6h-7h-6h-8h-27h-5h-19v-81zM31 199h20h7h27h13h11v7v5v8v5v6v5v32v13h-21h-6h-28h-5h-18v-81zM238 199h8h4h7h6h7h4h32h13v7v18v8v6v5v4v33h-5h-19h-8h-4h-7h-5h-33v-81zM344 199h7h4h9h4h7h4h33h13v7v18v8v6v5v4v33h-7
h-18h-8h-5h-5h-6h-32v-81zM449 199h5h6h7h6h8h27h13h11v16v6v8v4v6v31v10h-5h-6h-7h-6h-8h-27h-5h-19v-81zM31 99h5h5h8h5h6h5h33h11v6v18v8v5v7v5v32h-21h-6h-28h-5h-18v-81zM133 2h7h4h9h4h8h4h33h12v20v8v27v5v19h-6h-18h-8h-6h-5h-5h-33v-79zM238 2h8h4h7h6h7h4h32h13
v20v8v27v5v19h-5h-19h-8h-4h-7h-5h-33v-79zM344 2h7h4h9h4h7h4h33h13v20v8v27v5v19h-7h-18h-8h-5h-5h-6h-32v-79zM449 2h5h6h7h6h8h27h13h11v6v5v9v5v5v5v33v11h-5h-6h-7h-6h-8h-27h-5h-19v-79z" />
    <glyph glyph-name="A" unicode="A" 
d="M238 597h8h3h70v21v7v27v5v19h-5h-76v-79zM134 497h15h66v3v79h-7h-74v-82zM344 497h71h10v3v79h-6h-75v-82zM31 397h5h73v6v75h-78v-81zM449 397h68h13v6v75h-6h-75v-81zM31 297h5h73v6v75h-78v-81zM449 297h68h13v6v75h-6h-75v-81zM31 198h78v7v60v14h-78v-81zM134 198
h6h5h70v7v74h-81v-81zM238 198h8h3h58h12v7v74h-5h-76v-81zM344 198h7h4h70v7v74h-6h-75v-81zM449 198h68h13v7v74h-6h-75v-81zM31 98h5h73v5v76h-78v-81zM449 98h68h13v5v76h-6h-75v-81zM31 1h78v4v6v56v12h-78v-78zM449 1h81v6v5v56v11h-6h-75v-78z" />
    <glyph glyph-name="B" unicode="B" 
d="M31 598h20h7h27h14h10v60v18h-22h-5h-27h-5h-19v-78zM134 598h81v60v18h-7h-74v-78zM238 598h8h73v60v18h-5h-76v-78zM344 598h7h74v60v18h-81v-78zM134 497h81v5v6v72h-7h-74v-83zM449 497h7h17h57v16v6v61h-6h-75v-83zM134 398h81v6v19v56h-7h-74v-81zM449 398h7h5h8h4
h44h13v6v75h-6h-75v-81zM134 298h81v6v6v7v49v13h-7h-74v-81zM238 298h8h73v6v75h-5h-76v-81zM344 298h7h74v6v75h-81v-81zM134 198h81v8v73h-7h-74v-81zM449 198h7h5h8h4h44h13v8v73h-6h-75v-81zM134 99h81v5v5v8v49v14h-7h-74v-81zM449 99h7h5h8h4h44h13v5v76h-6h-75v-81z
M31 2h20h7h27h14h10v4v5v69h-22h-5h-27h-5h-19v-78zM134 2h81v78h-7h-74v-78zM238 2h8h73v78h-5h-76v-78zM344 2h7h74v78h-81v-78z" />
    <glyph glyph-name="C" unicode="C" 
d="M134 597h6h5h57h13v21v7v27v5v19h-7h-74v-79zM238 597h8h3h70v21v7v27v5v19h-5h-76v-79zM344 597h7h4h56h14v21v7v27v5v19h-6h-75v-79zM449 597h7h5h8h4h8h4h32h13v21v7v27v5v19h-6h-18h-7h-7h-5h-6h-32v-79zM31 497h5h5h9h5h5h6h33h10v3v8v6v7v6v27v5v20h-22h-5h-27h-5
h-19v-82zM31 397h5h5h9h5h5h6h33h10v6v19v7v6v6v5v32h-22h-5h-27h-5h-19v-81zM31 297h5h5h9h5h5h6h33h10v6v17v9v6v6v5v32h-22h-5h-27h-5h-19v-81zM31 198h20h7h27h14h10v7v5v7v5v7v4v32v14h-22h-5h-27h-5h-19v-81zM31 98h5h5h9h5h5h6h33h10v5v19v8v5v6v5v33h-22h-5h-27h-5
h-19v-81zM134 1h6h5h57h13v21v6v27v5v19h-7h-74v-78zM238 1h8h3h70v21v6v27v5v19h-5h-76v-78zM344 1h7h4h56h14v21v6v27v5v19h-6h-75v-78zM449 1h7h17h8h6h5h7h31v6v5v8v4v7v5v32v11h-6h-18h-7h-7h-5h-6h-32v-78z" />
    <glyph glyph-name="D" unicode="D" 
d="M31 672v4v-79h2h-2h2h8h58h2h8v2v-2v2v8v60v9h-3h3h-3h-7h-61h-7v-4zM134 672v4v-79h6h63h3h9v2v-2v2v8v60v9h-7h-6h-61h-7v-4zM238 672v4v-79h8h65h8v2v-2v2v8v60v9h-5h-67h-9v-4zM344 672v4v-79h7h74v2v-2v2v8v60v9h-6h-67h-8v-4zM134 496h6h63h3h9v6v69v7h-7h-6h-61
h-7v-82zM449 496h7h63h3h8v6v69v7h-6h-7h-59h-9v-82zM134 397h6h63h3h9v6v6v61v8h-7h-6h-61h-7v-81zM449 397h7h63h3h8v6v6v61v8h-6h-7h-59h-9v-81zM134 296h6h63h3h9v73v8h-7h-6h-61h-7v-81zM449 296h7h63h3h8v73v8h-6h-7h-59h-9v-81zM134 198h6h63h3h9v6v58v9v8h-7h-6h-61
h-7v-81zM449 198h7h63h3h8v6v58v9v8h-6h-7h-59h-9v-81zM134 97h6h63h3h9v6v8v59v8h-7h-6h-61h-7v-81zM449 97h7h63h3h8v6v8v59v8h-6h-7h-59h-9v-81zM31 76v3v-79h2h-2h2h8h58h2h8v4v-4v4v7v60v8h-3h3h-3h-7h-61h-7v-3zM134 76v3v-79h6h63h3h9v4v-4v4v7v60v8h-7h-6h-61h-7v-3
zM238 76v3v-79h8h65h8v4v-4v4v7v60v8h-5h-67h-9v-3zM344 76v3v-79h7h74v4v-4v4v7v60v8h-6h-67h-8v-3z" />
    <glyph glyph-name="E" unicode="E" 
d="M31 595h21h6h28h13h11v21v6v29v4v20h-21h-5h-29h-4h-20v-80zM134 595h7h5h9h4h7h4h32h13v21v6v29v4v20h-6h-18h-8h-5h-5h-6h-33v-80zM240 595h7h4h8h5h6h6h32h13v21v6v29v4v20h-7h-18h-7h-6h-5h-6h-32v-80zM345 595h6h6h7h6h6h5h32h13v21v6v29v4v20h-7h-17h-9h-4h-7h-5
h-32v-80zM451 595h6h5h8h4h7h5h33h13v21v6v29v4v20h-7h-18h-8h-5h-5h-6h-32v-80zM31 495h7h5h56h11v4v7v7v5v7v28v4v21h-79v-83zM31 395h7h5h56h11v6v18v8v6v7v4v32h-79v-81zM31 295h7h5h56h11v7v74h-79v-81zM134 295h7h74v7v4v8v49v13h-6h-75v-81zM240 295h7h74v7v74h-7
h-74v-81zM345 295h6h6h69v7v74h-81v-81zM451 295h6h75v7v74h-7h-74v-81zM31 197h68h11v6v5v8v5v6v5v33v13h-79v-81zM31 95h7h5h56h11v8v17v9v4v7v4v32h-79v-81zM31 -2h68h11v6v5v8v5v6v4v33v12h-79v-79zM134 -2h7h5h56h13v22v7v27v5v18h-6h-75v-79zM240 -2h7h74v22v7v27v5
v18h-7h-74v-79zM345 -2h6h6h69v22v7v27v5v18h-81v-79zM451 -2h6h75v7v6v8v3v8v5v32v10h-7h-74v-79z" />
    <glyph glyph-name="F" unicode="F" 
d="M31 597h79v21v7v27v5v19h-79v-79zM134 597h7h5h56h13v21v7v27v5v19h-6h-75v-79zM240 597h7h4h8h62v21v7v27v5v19h-7h-74v-79zM345 597h6h6h7h49h13v21v7v27v5v19h-7h-74v-79zM451 597h6h62h13v21v7v27v5v19h-7h-74v-79zM31 497h7h5h67v3v8v71h-79v-82zM31 397h7h5h67v6
v75h-79v-81zM31 297h7h5h67v6v75h-79v-81zM134 297h7h74v6v5v57v13h-6h-75v-81zM240 297h7h4h8h62v6v75h-7h-74v-81zM31 198h79v7v5v55v14h-79v-81zM31 98h7h5h67v5v19v8v5v6v5v33h-79v-81zM31 1h79v4v6v8v3v8v5v32v12h-79v-78z" />
    <glyph glyph-name="G" unicode="G" 
d="M133 597h6h5h8h5h8h3h33h13v21v7v27v5v19h-7h-17h-8h-6h-6h-4h-33v-79zM238 597h8h3h8h6h7h4h32h13v21v7v27v5v19h-6h-18h-8h-5h-6h-5h-33v-79zM344 597h7h4h8h5h6h5h32h14v21v7v27v5v19h-7h-18h-8h-5h-6h-5h-32v-79zM449 597h6h5h8h5h8h3h33h13v21v7v27v5v19h-6h-18h-8
h-6h-6h-5h-32v-79zM30 497h6h4h9h4h7h5h32h12v3v8v6v7v6v27v5v20h-22h-6h-28h-4h-19v-82zM30 397h6h4h9h4h7h5h32h12v6v19v7v6v6v5v32h-22h-6h-28h-4h-19v-81zM30 297h6h4h9h4h7h5h32h12v6v17v9v6v6v5v32h-22h-6h-28h-4h-19v-81zM238 297h8h3h8h6h7h4h32h13v6v17v9v6v6v5v32
h-6h-18h-8h-5h-6h-5h-33v-81zM344 297h7h4h8h5h6h5h32h14v6v17v9v6v6v5v32h-7h-18h-8h-5h-6h-5h-32v-81zM449 297h6h5h8h5h8h3h33h13v6v17v9v6v6v5v32h-6h-18h-8h-6h-6h-5h-32v-81zM30 198h20h7h28h12h12v7v5v7v5v7v4v32v14h-22h-6h-28h-4h-19v-81zM449 198h6h5h8h5h8h3h33
h13v7v17v8v5v6v6v32h-6h-18h-8h-6h-6h-5h-32v-81zM30 98h6h4h9h4h7h5h32h12v5v19v8v5v6v5v33h-22h-6h-28h-4h-19v-81zM449 98h6h5h8h5h8h3h33h13v5v19v8v5v6v5v33h-6h-18h-8h-6h-6h-5h-32v-81zM133 1h6h5h8h5h8h3h33h13v21v6v27v5v19h-7h-17h-8h-6h-6h-4h-33v-78zM238 1h8h3
h8h6h7h4h32h13v21v6v27v5v19h-6h-18h-8h-5h-6h-5h-33v-78zM344 1h7h4h8h5h6h5h32h14v21v6v27v5v19h-7h-18h-8h-5h-6h-5h-32v-78zM449 1h6h18h8h5h6h6h32v6v5v8v4v7v5v32v11h-6h-18h-8h-6h-6h-5h-32v-78z" />
    <glyph glyph-name="H" unicode="H" 
d="M31 598h21h6h28h13h11v20v7v27v5v19h-21h-5h-29h-4h-20v-78zM451 598h6h5h8h4h7h5h33h13v20v7v27v5v19h-7h-18h-8h-5h-5h-6h-32v-78zM31 497h7h5h8h4h6h6h32h11v3v8v6v7v6v27v6v19h-21h-5h-29h-4h-20v-82zM451 497h6h17h9h6h5h5h33v16v6v7v4v7v29v13h-7h-18h-8h-5h-5h-6
h-32v-82zM31 398h7h5h8h4h6h6h32h11v6v18v9v5v5v5v33h-21h-5h-29h-4h-20v-81zM451 398h6h5h8h4h7h5h33h13v6v18v9v5v5v5v33h-7h-18h-8h-5h-5h-6h-32v-81zM31 297h7h5h8h4h6h6h32h11v6v18v8v6v6v5v32h-21h-5h-29h-4h-20v-81zM134 297h7h18h8h6h5h5h32v6v7v7v4v7v5v32v13h-6
h-18h-8h-5h-5h-6h-33v-81zM240 297h7h4h8h5h6h6h32h13v6v18v8v6v6v5v32h-7h-18h-7h-6h-5h-6h-32v-81zM345 297h6h6h7h6h6h5h32h13v6v18v8v6v6v5v32h-7h-17h-9h-4h-7h-5h-32v-81zM451 297h6h5h8h4h7h5h33h13v6v18v8v6v6v5v32h-7h-18h-8h-5h-5h-6h-32v-81zM31 198h21h6h28h13
h11v7v5v7v5v7v5v32v13h-21h-5h-29h-4h-20v-81zM451 198h6h5h8h4h7h5h33h13v7v17v8v6v6v5v32h-7h-18h-8h-5h-5h-6h-32v-81zM31 98h7h5h8h4h6h6h32h11v6v18v8v5v6v7v31h-21h-5h-29h-4h-20v-81zM451 98h6h5h8h4h7h5h33h13v6v18v8v5v6v7v31h-7h-18h-8h-5h-5h-6h-32v-81zM31 1h21
h6h28h13h11v4v6v8v4v8v4v32v13h-21h-5h-29h-4h-20v-79zM451 1h6h17h9h6h5h5h33v6v5v9v5v5v5v32v12h-7h-18h-8h-5h-5h-6h-32v-79z" />
    <glyph glyph-name="I" unicode="I" horiz-adv-x="352" 
d="M31 598h20h7h27h14h10v20v7v27v5v19h-22h-5h-27h-5h-19v-78zM134 598h6h5h8h4h8h3h34h13v20v7v27v5v19h-7h-18h-8h-5h-5h-6h-32v-78zM238 598h6h4h9h5h6h6h32h13v20v7v27v5v19h-21h-6h-29h-5h-20v-78zM134 497h15h8h6h4h8h28h12v3v8v6v7v6v27v6v19h-7h-18h-8h-5h-5h-6
h-32v-82zM134 398h6h17h9h6h5h5h33v6v18v9v5v5v5v33h-7h-18h-8h-5h-5h-6h-32v-81zM134 297h6h17h9h6h5h5h33v6v7v7v4v7v5v32v13h-7h-18h-8h-5h-5h-6h-32v-81zM134 198h6h5h8h4h8h3h34h13v7v17v8v6v6v5v32h-7h-18h-8h-5h-5h-6h-32v-81zM134 98h6h17h9h6h5h5h33v6v5v8v5v7v4
v33v13h-7h-18h-8h-5h-5h-6h-32v-81zM31 1h20h7h27h14h10v4v6v8v4v8v4v32v13h-22h-5h-27h-5h-19v-79zM134 1h6h5h8h4h8h3h34h13v21v6v27v5v20h-7h-18h-8h-5h-5h-6h-32v-79zM238 1h23h5h28h13h12v21v6v27v5v20h-21h-6h-29h-5h-20v-79z" />
    <glyph glyph-name="J" unicode="J" 
d="M238 598h8h61h12v78h-5h-76v-78zM344 598h7h60h14v78h-6h-75v-78zM449 598h7h5h56h13v78h-6h-75v-78zM344 497h81v5v78h-6h-75v-83zM344 398h81v6v75h-6h-75v-81zM344 298h7h60h14v6v75h-6h-75v-81zM344 198h7h60h14v8v73h-6h-75v-81zM31 99h5h5h58h10v5v76h-78v-81z
M344 99h7h74v67v14h-6h-75v-81zM134 2h6h5h70v78h-7h-74v-78zM238 2h8h61h12v78h-5h-76v-78z" />
    <glyph glyph-name="K" unicode="K" 
d="M31 597h21h6h28h13h11v20v7v28v4v20h-21h-5h-29h-4h-20v-79zM451 597h6h5h8h4h7h5h33h13v20v7v28v4v20h-7h-18h-8h-5h-5h-6h-32v-79zM31 496h7h5h8h4h6h6h32h11v4v8v6v7v5v28v5v19h-21h-5h-29h-4h-20v-82zM345 496h17h6h7h4h6h31h10v4v8v6v7v5v28v5v19h-7h-17h-9h-4h-7
h-5h-32v-82zM31 397h7h5h8h4h6h6h32h11v6v18v8v6v6v4v33h-21h-5h-29h-4h-20v-81zM240 397h7h4h8h5h6h6h32h13v6v18v8v6v6v4v33h-7h-18h-7h-6h-5h-6h-32v-81zM31 296h7h5h8h4h6h6h32h11v6v18v8v6v6v6v31h-21h-5h-29h-4h-20v-81zM134 296h7h18h8h6h5h5h32v6v6v8v4v8v4v32v13
h-6h-18h-8h-5h-5h-6h-33v-81zM240 296h7h4h8h5h6h6h32h13v6v18v8v6v6v6v31h-7h-18h-7h-6h-5h-6h-32v-81zM31 198h21h6h28h13h11v6v5v8v4v8v4v32v14h-21h-5h-29h-4h-20v-81zM345 198h6h6h7h6h6h5h32h13v6v17v9v5v6v6v32h-7h-17h-9h-4h-7h-5h-32v-81zM31 97h7h5h8h4h6h6h32h11
v6v18v9v4v6v6v32h-21h-5h-29h-4h-20v-81zM451 97h6h5h8h4h7h5h33h13v6v18v9v4v6v6v32h-7h-18h-8h-5h-5h-6h-32v-81zM31 0h21h6h28h13h11v4v6v8v4v8v5v32v12h-21h-5h-29h-4h-20v-79zM451 0h6h17h9h6h5h5h33v6v5v8v5v7v5v32v11h-7h-18h-8h-5h-5h-6h-32v-79z" />
    <glyph glyph-name="L" unicode="L" 
d="M31 597h20h7h27h14h10v20v7v28v4v20h-22h-5h-27h-5h-19v-79zM31 496h5h5h9h5h5h6h33h10v4v8v6v7v5v28v5v19h-22h-5h-27h-5h-19v-82zM31 397h5h5h9h5h5h6h33h10v6v18v8v6v6v4v33h-22h-5h-27h-5h-19v-81zM31 296h5h5h9h5h5h6h33h10v6v18v8v6v6v6v31h-22h-5h-27h-5h-19v-81z
M31 198h20h7h27h14h10v6v5v8v4v8v4v32v14h-22h-5h-27h-5h-19v-81zM31 97h5h5h9h5h5h6h33h10v6v18v9v4v6v6v32h-22h-5h-27h-5h-19v-81zM31 0h20h7h27h14h10v4v6v8v4v8v5v32v12h-22h-5h-27h-5h-19v-79zM134 0h6h5h8h4h8h3h34h13v22v6v27v4v20h-7h-18h-8h-5h-5h-6h-32v-79z
M238 0h8h3h9h5h7h4h33h12v22v6v27v4v20h-5h-18h-9h-4h-7h-5h-33v-79zM344 0h7h4h9h4h7h5h31h14v22v6v27v4v20h-6h-19h-8h-4h-6h-5h-33v-79zM449 0h7h17h8h6h5h7h31v6v5v8v5v7v5v32v11h-6h-18h-7h-7h-5h-6h-32v-79z" />
    <glyph glyph-name="M" unicode="M" 
d="M31 598h20h7h27h14h10v20v7v27v6v18h-22h-5h-27h-5h-19v-78zM449 598h7h5h8h4h8h4h32h13v20v7v27v6v18h-6h-18h-7h-7h-5h-6h-32v-78zM31 497h5h5h9h5h5h6h33h10v5v6v6v7v7v26v6v20h-22h-5h-27h-5h-19v-83zM134 497h15h8h6h4h8h28h12v5v6v6v7v7v26v6v20h-7h-18h-8h-5h-5
h-6h-32v-83zM344 497h16h7h7h5h5h31h10v5v6v6v7v7v26v6v20h-6h-19h-8h-4h-6h-5h-33v-83zM449 497h7h17h8h6h5h7h31v16v6v7v5v6v29v14h-6h-18h-7h-7h-5h-6h-32v-83zM31 398h5h5h9h5h5h6h33h10v6v19v8v5v5v6v32h-22h-5h-27h-5h-19v-81zM238 398h8h3h9h5h7h4h33h12v6v19v8v5v5
v6v32h-5h-18h-9h-4h-7h-5h-33v-81zM449 398h7h5h8h4h8h4h32h13v6v19v8v5v5v6v32h-6h-18h-7h-7h-5h-6h-32v-81zM31 298h5h5h9h5h5h6h33h10v6v17v9v5v7v4v33h-22h-5h-27h-5h-19v-81zM238 298h8h3h9h5h7h4h33h12v6v17v9v5v7v4v33h-5h-18h-9h-4h-7h-5h-33v-81zM449 298h7h5h8h4
h8h4h32h13v6v17v9v5v7v4v33h-6h-18h-7h-7h-5h-6h-32v-81zM31 198h20h7h27h14h10v8v5v8v4v6v5v32v13h-22h-5h-27h-5h-19v-81zM449 198h7h5h8h4h8h4h32h13v8v17v7v6v6v5v32h-6h-18h-7h-7h-5h-6h-32v-81zM31 99h5h5h9h5h5h6h33h10v5v19v8v5v6v6v32h-22h-5h-27h-5h-19v-81z
M449 99h7h5h8h4h8h4h32h13v5v19v8v5v6v6v32h-6h-18h-7h-7h-5h-6h-32v-81zM31 2h20h7h27h14h10v4v5v8v4v8v4v32v13h-22h-5h-27h-5h-19v-78zM449 2h7h17h8h6h5h7h31v6v5v8v5v5v5v32v12h-6h-18h-7h-7h-5h-6h-32v-78z" />
    <glyph glyph-name="N" unicode="N" 
d="M31 598h20h7h27h14h10v20v7v27v6v18h-22h-5h-27h-5h-19v-78zM449 598h7h5h8h4h8h4h32h13v20v7v27v6v18h-6h-18h-7h-7h-5h-6h-32v-78zM31 497h5h5h9h5h5h6h33h10v5v6v6v7v7v26v6v20h-22h-5h-27h-5h-19v-83zM449 497h7h17h8h6h5h7h31v16v6v7v5v6v29v14h-6h-18h-7h-7h-5h-6
h-32v-83zM31 398h5h5h9h5h5h6h33h10v6v19v8v5v5v6v32h-22h-5h-27h-5h-19v-81zM134 398h6h17h9h6h5h5h33v6v19v8v5v5v6v32h-7h-18h-8h-5h-5h-6h-32v-81zM449 398h7h5h8h4h8h4h32h13v6v19v8v5v5v6v32h-6h-18h-7h-7h-5h-6h-32v-81zM31 298h5h5h9h5h5h6h33h10v6v17v9v5v7v4v33
h-22h-5h-27h-5h-19v-81zM238 298h8h3h9h5h7h4h33h12v6v17v9v5v7v4v33h-5h-18h-9h-4h-7h-5h-33v-81zM449 298h7h5h8h4h8h4h32h13v6v17v9v5v7v4v33h-6h-18h-7h-7h-5h-6h-32v-81zM31 198h20h7h27h14h10v8v5v8v4v6v5v32v13h-22h-5h-27h-5h-19v-81zM344 198h7h4h9h4h7h5h31h14v8
v17v7v6v6v5v32h-6h-19h-8h-4h-6h-5h-33v-81zM449 198h7h5h8h4h8h4h32h13v8v17v7v6v6v5v32h-6h-18h-7h-7h-5h-6h-32v-81zM31 99h5h5h9h5h5h6h33h10v5v19v8v5v6v6v32h-22h-5h-27h-5h-19v-81zM449 99h7h5h8h4h8h4h32h13v5v19v8v5v6v6v32h-6h-18h-7h-7h-5h-6h-32v-81zM31 2h20h7
h27h14h10v4v5v8v4v8v4v32v13h-22h-5h-27h-5h-19v-78zM449 2h7h17h8h6h5h7h31v6v5v8v5v5v5v32v12h-6h-18h-7h-7h-5h-6h-32v-78z" />
    <glyph glyph-name="O" unicode="O" 
d="M136 597h6h6h7h4h7h5h32h14v21v7v27v5v19h-7h-17h-9h-4h-7h-6h-31v-79zM240 597h7h5h9h4h6h5h34h11v21v7v27v5v19h-6h-17h-9h-5h-6h-4h-34v-79zM346 597h6h5h8h5h7h5h32h13v21v7v27v5v19h-7h-18h-7h-4h-8h-4h-33v-79zM31 497h7h5h8h5h7h4h33h12v3v8v6v7v6v27v5v20h-22h-6
h-28h-5h-20v-82zM451 497h7h18h7h6h6h5h32v16v5v7v5v7v28v14h-6h-18h-8h-5h-6h-6h-32v-82zM31 397h7h5h8h5h7h4h33h12v6v19v7v6v6v5v32h-22h-6h-28h-5h-20v-81zM451 397h7h5h9h4h5h6h32h13v6v19v7v6v6v5v32h-6h-18h-8h-5h-6h-6h-32v-81zM31 297h7h5h8h5h7h4h33h12v6v17v9v6
v6v5v32h-22h-6h-28h-5h-20v-81zM451 297h7h5h9h4h5h6h32h13v6v17v9v6v6v5v32h-6h-18h-8h-5h-6h-6h-32v-81zM31 198h22h6h27h14h12v7v5v7v5v7v4v32v14h-22h-6h-28h-5h-20v-81zM451 198h7h5h9h4h5h6h32h13v7v17v8v5v6v6v32h-6h-18h-8h-5h-6h-6h-32v-81zM31 98h7h5h8h5h7h4h33
h12v5v19v8v5v6v5v33h-22h-6h-28h-5h-20v-81zM451 98h7h5h9h4h5h6h32h13v5v19v8v5v6v5v33h-6h-18h-8h-5h-6h-6h-32v-81zM136 1h6h6h7h4h7h5h32h14v21v6v27v5v19h-7h-17h-9h-4h-7h-6h-31v-78zM240 1h7h5h9h4h6h5h34h11v21v6v27v5v19h-6h-17h-9h-5h-6h-4h-34v-78zM346 1h6h5h8
h5h7h5h32h13v21v6v27v5v19h-7h-18h-7h-4h-8h-4h-33v-78z" />
    <glyph glyph-name="P" unicode="P" 
d="M31 595h68h11v80h-79v-80zM133 595h7h74v80h-81v-80zM239 595h7h4h70v80h-81v-80zM344 595h68h13v80h-6h-75v-80zM31 495h6h62h11v4v7v72h-79v-83zM450 495h6h75v15v68h-6h-75v-83zM31 395h6h62h11v6v75h-79v-81zM450 395h6h5h57h13v6v75h-6h-75v-81zM31 295h6h62h11v7
v74h-79v-81zM133 295h7h74v7v4v57v13h-81v-81zM239 295h7h4h8h62v7v74h-81v-81zM344 295h68h13v7v74h-6h-75v-81zM31 197h68h11v6v75h-79v-81zM31 95h6h62h11v8v73h-79v-81zM31 -2h68h11v6v5v56v12h-79v-79z" />
    <glyph glyph-name="Q" unicode="Q" 
d="M133 598h81v78h-5h-76v-78zM239 598h81v78h-6h-75v-78zM344 598h7h74v78h-6h-75v-78zM31 497h6h62h11v3v8v71h-79v-82zM450 497h6h75v82h-6h-75v-82zM31 398h6h62h11v6v75h-79v-81zM450 398h6h5h70v6v75h-6h-75v-81zM31 297h6h62h11v6v75h-79v-81zM450 297h6h5h70v6v75
h-6h-75v-81zM31 198h68h11v7v5v56v13h-79v-81zM239 198h81v7v74h-6h-75v-81zM450 198h6h5h70v7v74h-6h-75v-81zM31 98h6h62h11v6v75h-79v-81zM344 98h7h74v6v5v57v13h-6h-75v-81zM133 1h81v21v58h-5h-76v-79zM239 1h81v21v58h-6h-75v-79zM450 1h6h75v6v5v9v59h-6h-75v-79z
" />
    <glyph glyph-name="R" unicode="R" 
d="M31 598h68h10v78h-78v-78zM134 598h11h57h13v78h-7h-74v-78zM238 598h8h73v78h-5h-76v-78zM344 598h7h4h70v78h-6h-75v-78zM31 497h5h63h10v5v78h-78v-83zM449 497h7h74v69v14h-6h-75v-83zM31 398h5h63h10v6v75h-78v-81zM449 398h7h5h56h13v6v75h-6h-75v-81zM31 298h5h63
h10v81h-78v-81zM134 298h6h75v68v13h-7h-74v-81zM238 298h8h73v81h-5h-76v-81zM344 298h7h4h70v81h-6h-75v-81zM31 198h68h10v8v5v55v13h-78v-81zM238 198h8h73v8v73h-5h-76v-81zM31 99h5h63h10v5v76h-78v-81zM344 99h7h74v5v62v14h-6h-75v-81zM31 2h68h10v4v5v56v13h-78
v-78zM449 2h7h17h57v6v5v55v12h-6h-18h-57v-78z" />
    <glyph glyph-name="S" unicode="S" 
d="M136 595h6h6h55h14v21v59h-7h-74v-80zM240 595h7h63h11v21v59h-6h-75v-80zM346 595h68h13v21v59h-7h-74v-80zM31 495h7h5h57h12v4v7v51v21h-81v-83zM451 495h7h74v15v53v15h-6h-75v-83zM31 395h7h5h57h12v6v75h-81v-81zM136 295h6h75v7v74h-7h-74v-81zM240 295h7h63h11v7
v74h-6h-75v-81zM346 295h68h13v7v74h-7h-74v-81zM451 197h7h5h56h13v6v75h-6h-75v-81zM31 95h7h5h8h5h7h4h33h12v8v73h-22h-6h-28h-5h-20v-81zM451 95h7h5h9h47h13v8v73h-6h-75v-81zM136 -2h6h6h55h14v79h-7h-74v-79zM240 -2h7h63h11v79h-6h-75v-79zM346 -2h68h13v79h-7h-74
v-79z" />
    <glyph glyph-name="T" unicode="T" 
d="M31 597h68h11v79h-79v-79zM134 597h7h5h56h13v79h-6h-75v-79zM240 597h7h4h8h49h13v79h-7h-74v-79zM345 597h6h6h56h13v79h-7h-74v-79zM451 597h6h5h57h13v79h-7h-74v-79zM240 496h16h54h11v4v59v19h-7h-74v-82zM240 397h7h4h8h49h13v6v75h-7h-74v-81zM240 296h7h4h8h49
h13v6v75h-7h-74v-81zM240 198h7h4h8h49h13v6v75h-7h-74v-81zM240 97h7h74v6v6v57v12h-7h-74v-81zM240 0h7h4h8h49h13v22v57h-7h-74v-79z" />
    <glyph glyph-name="U" unicode="U" 
d="M31 593h79v78h-79v-78zM451 593h81v78h-7h-74v-78zM31 492h79v5v78h-79v-83zM451 492h81v70v13h-7h-74v-83zM31 392h79v8v73h-79v-81zM451 392h81v8v73h-7h-74v-81zM31 293h79v7v74h-79v-81zM451 293h81v7v74h-7h-74v-81zM31 193h79v7v62v12h-79v-81zM451 193h81v7v74h-7
h-74v-81zM31 94h79v6v75h-79v-81zM451 94h81v6v75h-7h-74v-81zM134 -5h81v81h-6h-75v-81zM240 -5h81v81h-81v-81zM345 -5h81v81h-81v-81z" />
    <glyph glyph-name="V" unicode="V" 
d="M31 597h78v79h-78v-79zM449 597h81v79h-6h-75v-79zM31 496h78v4v78h-78v-82zM449 496h81v82h-6h-75v-82zM31 397h78v6v75h-78v-81zM449 397h81v6v75h-6h-75v-81zM31 296h78v6v75h-78v-81zM449 296h81v6v75h-6h-75v-81zM31 198h78v6v5v70h-78v-81zM449 198h81v6v75h-81
v-81zM134 97h81v81h-7h-74v-81zM344 97h81v81h-81v-81zM238 0h8h73v79h-81v-79z" />
    <glyph glyph-name="W" unicode="W" 
d="M31 597h78v79h-78v-79zM449 597h7h74v79h-6h-75v-79zM31 498h78v7v74h-78v-81zM449 498h7h74v7v74h-6h-75v-81zM238 497h8h73v6v75h-5h-76v-81zM31 397h5h73v6v75h-78v-81zM238 397h8h61h12v6v75h-5h-76v-81zM449 397h7h74v6v75h-6h-75v-81zM31 297h5h73v6v75h-78v-81z
M238 297h8h61h12v6v75h-5h-76v-81zM449 297h7h74v6v75h-6h-75v-81zM31 198h78v7v5v55v14h-78v-81zM134 198h6h62h13v7v74h-7h-74v-81zM344 198h7h4h56h14v7v74h-6h-75v-81zM449 198h7h74v7v74h-6h-75v-81zM31 98h5h73v5v76h-78v-81zM449 98h7h74v5v76h-6h-75v-81zM31 1h78v4
v62v12h-78v-78zM449 1h7h74v6v61v11h-6h-75v-78z" />
    <glyph glyph-name="X" unicode="X" 
d="M31 598h79v78h-79v-78zM451 598h6h5h57h13v78h-7h-74v-78zM31 497h7h5h67v3v8v6v65h-79v-82zM451 497h6h75v16v53v13h-7h-74v-82zM134 398h7h18h56v6v75h-6h-75v-81zM345 398h6h6h56h13v6v75h-7h-74v-81zM240 297h81v6v75h-7h-74v-81zM134 198h7h18h43h13v7v74h-6h-75
v-81zM345 198h6h6h56h13v7v74h-7h-74v-81zM31 98h7h5h67v6v75h-79v-81zM451 98h6h5h57h13v6v75h-7h-74v-81zM31 1h79v4v6v69h-79v-79zM451 1h6h75v6v5v68h-7h-74v-79z" />
    <glyph glyph-name="Y" unicode="Y" 
d="M31 595h21h6h28h13h11v21v6v28v4v21h-21h-5h-29h-4h-20v-80zM451 595h6h5h8h4h7h5h33h13v21v6v28v4v21h-7h-18h-8h-5h-5h-6h-32v-80zM31 494h7h5h8h4h6h6h32h11v5v6v8v5v7v28v4v20h-21h-5h-29h-4h-20v-83zM451 494h6h17h9h6h5h5h33v16v7v6v5v7v28v14h-7h-18h-8h-5h-5h-6
h-32v-83zM134 395h7h18h8h6h5h5h32v6v18v8v6v7v4v32h-6h-18h-8h-5h-5h-6h-33v-81zM345 395h6h6h7h6h6h5h32h13v6v18v8v6v7v4v32h-7h-17h-9h-4h-7h-5h-32v-81zM240 294h7h4h8h5h6h6h32h13v7v18v9v4v6v5v32h-7h-18h-7h-6h-5h-6h-32v-81zM240 197h7h4h8h5h6h6h32h13v5v18v9v4v6
v6v33h-7h-18h-7h-6h-5h-6h-32v-81zM240 95h7h17h8h6h5h6h32v8v5v8v4v6v5v33v12h-7h-18h-7h-6h-5h-6h-32v-81zM240 -2h7h4h8h5h6h6h32h13v21v8v26v5v19h-7h-18h-7h-6h-5h-6h-32v-79z" />
    <glyph glyph-name="Z" unicode="Z" 
d="M31 598h20h7h27h14h10v20v7v27v6v18h-22h-5h-27h-5h-19v-78zM134 598h6h5h8h4h8h3h34h13v20v7v27v6v18h-7h-18h-8h-5h-5h-6h-32v-78zM238 598h8h3h9h5h7h4h33h12v20v7v27v6v18h-5h-18h-9h-4h-7h-5h-33v-78zM344 598h7h4h9h4h7h5h31h14v20v7v27v6v18h-6h-19h-8h-4h-6h-5
h-33v-78zM449 598h7h5h8h4h8h4h32h13v20v7v27v6v18h-6h-18h-7h-7h-5h-6h-32v-78zM449 497h7h17h8h6h5h7h31v16v6v7v5v6v29v14h-6h-18h-7h-7h-5h-6h-32v-83zM344 398h7h4h9h4h7h5h31h14v6v19v8v5v5v6v32h-6h-19h-8h-4h-6h-5h-33v-81zM238 298h8h3h9h5h7h4h33h12v6v17v9v5v7v4
v33h-5h-18h-9h-4h-7h-5h-33v-81zM134 198h6h5h8h4h8h3h34h13v8v17v7v6v6v5v32h-7h-18h-8h-5h-5h-6h-32v-81zM31 99h5h5h9h5h5h6h33h10v5v19v8v5v6v6v32h-22h-5h-27h-5h-19v-81zM31 2h20h7h27h14h10v4v5v8v4v8v4v32v13h-22h-5h-27h-5h-19v-78zM134 2h6h5h8h4h8h3h34h13v20v6
v29v4v19h-7h-18h-8h-5h-5h-6h-32v-78zM238 2h8h3h9h5h7h4h33h12v20v6v29v4v19h-5h-18h-9h-4h-7h-5h-33v-78zM344 2h7h4h9h4h7h5h31h14v20v6v29v4v19h-6h-19h-8h-4h-6h-5h-33v-78zM449 2h7h17h8h6h5h7h31v6v5v8v5v5v5v32v12h-6h-18h-7h-7h-5h-6h-32v-78z" />
    <glyph glyph-name="bracketleft" unicode="[" horiz-adv-x="361" 
d="M20 598h7h4h9h4h7h5h32h13v20v7v27v6v18h-7h-18h-8h-5h-5h-6h-32v-78zM20 497h6h5h8h5h6h5h32h12v3v8v6v7v6v27v5v20h-23h-5h-27h-5h-19v-82zM20 397h6h5h8h5h6h5h32h12v6v19v7v6v6v5v32h-23h-5h-27h-5h-19v-81zM20 297h6h5h8h5h6h5h32h12v6v17v9v6v6v5v32h-23h-5h-27h-5
h-19v-81zM20 198h20h7h28h12h12v7v5v7v5v7v4v32v14h-23h-5h-27h-5h-19v-81zM20 98h6h5h8h5h6h5h32h12v5v19v8v5v6v5v33h-23h-5h-27h-5h-19v-81zM124 1h6h4h8h6h5h4h34h14v21v6v27v5v19h-8h-17h-8h-6h-6h-4h-32v-78zM19 2h6h5h8h5h6h5h33h13v20v6v29v4v19h-7h-17h-9h-5h-6h-5
h-32v-78zM224 597h6h6h9h4h6h5h32h13v21v7v27v5v19h-6h-18h-8h-5h-6h-6h-32v-79zM234 1h7h6h8h4h6h5h33h12v21v6v27v5v19h-5h-18h-9h-5h-6h-5h-33v-78zM124 597h6h4h8h6h5h4h34h14v21v7v27v5v19h-8h-17h-8h-6h-6h-4h-32v-79z" />
    <glyph glyph-name="backslash" unicode="\" 
d="M31 598h6h5h9h4h6h6h33h12v20v7v27v5v19h-7h-18h-8h-4h-7h-5h-32v-78zM95 497h17h7h6h5h6h30h10v3v8v6v7v6v27v6v19h-6h-17h-9h-4h-7h-5h-33v-82zM166 398h8h4h8h5h6h5h33h12v6v18v9v5v5v5v33h-6h-18h-8h-5h-6h-5h-33v-81zM239 297h7h4h8h5h7h5h32h13v6v18v8v6v6v5v32h-6
h-19h-7h-5h-6h-6h-32v-81zM310 198h8h17h8h4h8h4h32v7v17v8v6v6v5v32h-7h-17h-8h-4h-8h-4h-33v-81zM387 98h6h18h8h6h6h5h32v6v5v8v5v7v4v33v13h-6h-18h-8h-5h-6h-6h-32v-81zM452 3h21h8h26h14h11v4v5v8v4v7v5v32v14h-22h-5h-28h-5h-20v-79z" />
    <glyph glyph-name="bracketright" unicode="]" horiz-adv-x="361" 
d="M317 79h-7h-4h-57h-13v-20v-7v-28v-4v-19h6h75v78zM318 181h-7h-5h-68v-5v-6v-6v-7v-8v-26v-6v-18h80v82zM318 279h-7h-5h-68v-5v-18v-58h80v81zM318 381h-7h-5h-68v-7v-19v-55h80v81zM318 479h-80v-7v-4v-57v-13h80v81zM318 580h-7h-5h-68v-7v-74h80v81zM214 676h-7h-5
h-69v-78h7h74v78zM319 676h-8h-4h-69v-79h6h75v79zM112 80h-6h-5h-7h-5h-7h-6h-32h-13v-21v-6v-27v-5v-19h7h18h8h4h8h4h32v78zM103 676h-8h-73v-78h6h75v78zM214 80h-7h-5h-8h-4h-6h-6h-32h-13v-21v-6v-27v-5v-19h7h17h8h6h5h6h32v78z" />
    <glyph glyph-name="asciicircum" unicode="^" 
d="M201 548h6h5h9h4h7h6h32h12v22v6v27v5v19h-7h-18h-8h-4h-7h-5h-32v-79zM95 448h17h6h7h5h6h30h10v5v6v6v7v6v28v4v20h-6h-18h-8h-4h-8h-4h-33v-82zM306 448h16h6h7h6h5h29h12v5v6v6v7v6v28v4v20h-5h-19h-8h-4h-7h-6h-32v-82zM-8 351h21h7h27h13h11v4v5v8v5v6v5v33v12h-21
h-6h-27h-6h-19v-78zM411 351h7h6h8h4h6h5h34h11v21v6v28v4v19h-6h-18h-8h-5h-6h-5h-33v-78z" />
    <glyph glyph-name="underscore" unicode="_" horiz-adv-x="740" 
d="M108 -2v81h-80v-81h80zM209 -2v81h-83v-81h83zM307 -2v81h-81v-81h81zM408 -2v81h-81v-81h81zM506 -2v81h-81v-81h81zM607 -2v81h-81v-81h81zM704 -2v81h-79v-81h79z" />
    <glyph glyph-name="grave" unicode="`" horiz-adv-x="196" 
d="M11 544h20h6h28h12h13v5v19v8v4v7v4v34h-22h-6h-27h-6h-18v-81zM63 442h5h6h9h4h7h5h32h11v7v18v8v6v5v4v33h-21h-7h-27h-4h-20v-81z" />
    <glyph glyph-name="a" unicode="a" 
d="M238 597h8h3h70v21v7v27v5v19h-5h-76v-79zM134 497h15h66v3v79h-7h-74v-82zM344 497h71h10v3v79h-6h-75v-82zM31 397h5h73v6v75h-78v-81zM449 397h68h13v6v75h-6h-75v-81zM31 297h5h73v6v75h-78v-81zM449 297h68h13v6v75h-6h-75v-81zM31 198h78v7v60v14h-78v-81zM134 198
h6h5h70v7v74h-81v-81zM238 198h8h3h58h12v7v74h-5h-76v-81zM344 198h7h4h70v7v74h-6h-75v-81zM449 198h68h13v7v74h-6h-75v-81zM31 98h5h73v5v76h-78v-81zM449 98h68h13v5v76h-6h-75v-81zM31 1h78v4v6v56v12h-78v-78zM449 1h81v6v5v56v11h-6h-75v-78z" />
    <glyph glyph-name="b" unicode="b" 
d="M31 598h20h7h27h14h10v60v18h-22h-5h-27h-5h-19v-78zM134 598h81v60v18h-7h-74v-78zM238 598h8h73v60v18h-5h-76v-78zM344 598h7h74v60v18h-81v-78zM134 497h81v5v6v72h-7h-74v-83zM449 497h7h17h57v16v6v61h-6h-75v-83zM134 398h81v6v19v56h-7h-74v-81zM449 398h7h5h8h4
h44h13v6v75h-6h-75v-81zM134 298h81v6v6v7v49v13h-7h-74v-81zM238 298h8h73v6v75h-5h-76v-81zM344 298h7h74v6v75h-81v-81zM134 198h81v8v73h-7h-74v-81zM449 198h7h5h8h4h44h13v8v73h-6h-75v-81zM134 99h81v5v5v8v49v14h-7h-74v-81zM449 99h7h5h8h4h44h13v5v76h-6h-75v-81z
M31 2h20h7h27h14h10v4v5v69h-22h-5h-27h-5h-19v-78zM134 2h81v78h-7h-74v-78zM238 2h8h73v78h-5h-76v-78zM344 2h7h74v78h-81v-78z" />
    <glyph glyph-name="c" unicode="c" 
d="M134 597h6h5h57h13v21v7v27v5v19h-7h-74v-79zM238 597h8h3h70v21v7v27v5v19h-5h-76v-79zM344 597h7h4h56h14v21v7v27v5v19h-6h-75v-79zM449 597h7h5h8h4h8h4h32h13v21v7v27v5v19h-6h-18h-7h-7h-5h-6h-32v-79zM31 497h5h5h9h5h5h6h33h10v3v8v6v7v6v27v5v20h-22h-5h-27h-5
h-19v-82zM31 397h5h5h9h5h5h6h33h10v6v19v7v6v6v5v32h-22h-5h-27h-5h-19v-81zM31 297h5h5h9h5h5h6h33h10v6v17v9v6v6v5v32h-22h-5h-27h-5h-19v-81zM31 198h20h7h27h14h10v7v5v7v5v7v4v32v14h-22h-5h-27h-5h-19v-81zM31 98h5h5h9h5h5h6h33h10v5v19v8v5v6v5v33h-22h-5h-27h-5
h-19v-81zM134 1h6h5h57h13v21v6v27v5v19h-7h-74v-78zM238 1h8h3h70v21v6v27v5v19h-5h-76v-78zM344 1h7h4h56h14v21v6v27v5v19h-6h-75v-78zM449 1h7h17h8h6h5h7h31v6v5v8v4v7v5v32v11h-6h-18h-7h-7h-5h-6h-32v-78z" />
    <glyph glyph-name="d" unicode="d" 
d="M31 672v4v-79h2h-2h2h8h58h2h8v2v-2v2v8v60v9h-3h3h-3h-7h-61h-7v-4zM134 672v4v-79h6h63h3h9v2v-2v2v8v60v9h-7h-6h-61h-7v-4zM238 672v4v-79h8h65h8v2v-2v2v8v60v9h-5h-67h-9v-4zM344 672v4v-79h7h74v2v-2v2v8v60v9h-6h-67h-8v-4zM134 496h6h63h3h9v6v69v7h-7h-6h-61
h-7v-82zM449 496h7h63h3h8v6v69v7h-6h-7h-59h-9v-82zM134 397h6h63h3h9v6v6v61v8h-7h-6h-61h-7v-81zM449 397h7h63h3h8v6v6v61v8h-6h-7h-59h-9v-81zM134 296h6h63h3h9v73v8h-7h-6h-61h-7v-81zM449 296h7h63h3h8v73v8h-6h-7h-59h-9v-81zM134 198h6h63h3h9v6v58v9v8h-7h-6h-61
h-7v-81zM449 198h7h63h3h8v6v58v9v8h-6h-7h-59h-9v-81zM134 97h6h63h3h9v6v8v59v8h-7h-6h-61h-7v-81zM449 97h7h63h3h8v6v8v59v8h-6h-7h-59h-9v-81zM31 76v3v-79h2h-2h2h8h58h2h8v4v-4v4v7v60v8h-3h3h-3h-7h-61h-7v-3zM134 76v3v-79h6h63h3h9v4v-4v4v7v60v8h-7h-6h-61h-7v-3
zM238 76v3v-79h8h65h8v4v-4v4v7v60v8h-5h-67h-9v-3zM344 76v3v-79h7h74v4v-4v4v7v60v8h-6h-67h-8v-3z" />
    <glyph glyph-name="e" unicode="e" 
d="M31 595h21h6h28h13h11v21v6v29v4v20h-21h-5h-29h-4h-20v-80zM134 595h7h5h9h4h7h4h32h13v21v6v29v4v20h-6h-18h-8h-5h-5h-6h-33v-80zM240 595h7h4h8h5h6h6h32h13v21v6v29v4v20h-7h-18h-7h-6h-5h-6h-32v-80zM345 595h6h6h7h6h6h5h32h13v21v6v29v4v20h-7h-17h-9h-4h-7h-5
h-32v-80zM451 595h6h5h8h4h7h5h33h13v21v6v29v4v20h-7h-18h-8h-5h-5h-6h-32v-80zM31 495h7h5h56h11v4v7v7v5v7v28v4v21h-79v-83zM31 395h7h5h56h11v6v18v8v6v7v4v32h-79v-81zM31 295h7h5h56h11v7v74h-79v-81zM134 295h7h74v7v4v8v49v13h-6h-75v-81zM240 295h7h74v7v74h-7
h-74v-81zM345 295h6h6h69v7v74h-81v-81zM451 295h6h75v7v74h-7h-74v-81zM31 197h68h11v6v5v8v5v6v5v33v13h-79v-81zM31 95h7h5h56h11v8v17v9v4v7v4v32h-79v-81zM31 -2h68h11v6v5v8v5v6v4v33v12h-79v-79zM134 -2h7h5h56h13v22v7v27v5v18h-6h-75v-79zM240 -2h7h74v22v7v27v5
v18h-7h-74v-79zM345 -2h6h6h69v22v7v27v5v18h-81v-79zM451 -2h6h75v7v6v8v3v8v5v32v10h-7h-74v-79z" />
    <glyph glyph-name="f" unicode="f" 
d="M31 597h79v21v7v27v5v19h-79v-79zM134 597h7h5h56h13v21v7v27v5v19h-6h-75v-79zM240 597h7h4h8h62v21v7v27v5v19h-7h-74v-79zM345 597h6h6h7h49h13v21v7v27v5v19h-7h-74v-79zM451 597h6h62h13v21v7v27v5v19h-7h-74v-79zM31 497h7h5h67v3v8v71h-79v-82zM31 397h7h5h67v6
v75h-79v-81zM31 297h7h5h67v6v75h-79v-81zM134 297h7h74v6v5v57v13h-6h-75v-81zM240 297h7h4h8h62v6v75h-7h-74v-81zM31 198h79v7v5v55v14h-79v-81zM31 98h7h5h67v5v19v8v5v6v5v33h-79v-81zM31 1h79v4v6v8v3v8v5v32v12h-79v-78z" />
    <glyph glyph-name="g" unicode="g" 
d="M133 597h6h5h8h5h8h3h33h13v21v7v27v5v19h-7h-17h-8h-6h-6h-4h-33v-79zM238 597h8h3h8h6h7h4h32h13v21v7v27v5v19h-6h-18h-8h-5h-6h-5h-33v-79zM344 597h7h4h8h5h6h5h32h14v21v7v27v5v19h-7h-18h-8h-5h-6h-5h-32v-79zM449 597h6h5h8h5h8h3h33h13v21v7v27v5v19h-6h-18h-8
h-6h-6h-5h-32v-79zM30 497h6h4h9h4h7h5h32h12v3v8v6v7v6v27v5v20h-22h-6h-28h-4h-19v-82zM30 397h6h4h9h4h7h5h32h12v6v19v7v6v6v5v32h-22h-6h-28h-4h-19v-81zM30 297h6h4h9h4h7h5h32h12v6v17v9v6v6v5v32h-22h-6h-28h-4h-19v-81zM238 297h8h3h8h6h7h4h32h13v6v17v9v6v6v5v32
h-6h-18h-8h-5h-6h-5h-33v-81zM344 297h7h4h8h5h6h5h32h14v6v17v9v6v6v5v32h-7h-18h-8h-5h-6h-5h-32v-81zM449 297h6h5h8h5h8h3h33h13v6v17v9v6v6v5v32h-6h-18h-8h-6h-6h-5h-32v-81zM30 198h20h7h28h12h12v7v5v7v5v7v4v32v14h-22h-6h-28h-4h-19v-81zM449 198h6h5h8h5h8h3h33
h13v7v17v8v5v6v6v32h-6h-18h-8h-6h-6h-5h-32v-81zM30 98h6h4h9h4h7h5h32h12v5v19v8v5v6v5v33h-22h-6h-28h-4h-19v-81zM449 98h6h5h8h5h8h3h33h13v5v19v8v5v6v5v33h-6h-18h-8h-6h-6h-5h-32v-81zM133 1h6h5h8h5h8h3h33h13v21v6v27v5v19h-7h-17h-8h-6h-6h-4h-33v-78zM238 1h8h3
h8h6h7h4h32h13v21v6v27v5v19h-6h-18h-8h-5h-6h-5h-33v-78zM344 1h7h4h8h5h6h5h32h14v21v6v27v5v19h-7h-18h-8h-5h-6h-5h-32v-78zM449 1h6h18h8h5h6h6h32v6v5v8v4v7v5v32v11h-6h-18h-8h-6h-6h-5h-32v-78z" />
    <glyph glyph-name="h" unicode="h" 
d="M31 598h21h6h28h13h11v20v7v27v5v19h-21h-5h-29h-4h-20v-78zM451 598h6h5h8h4h7h5h33h13v20v7v27v5v19h-7h-18h-8h-5h-5h-6h-32v-78zM31 497h7h5h8h4h6h6h32h11v3v8v6v7v6v27v6v19h-21h-5h-29h-4h-20v-82zM451 497h6h17h9h6h5h5h33v16v6v7v4v7v29v13h-7h-18h-8h-5h-5h-6
h-32v-82zM31 398h7h5h8h4h6h6h32h11v6v18v9v5v5v5v33h-21h-5h-29h-4h-20v-81zM451 398h6h5h8h4h7h5h33h13v6v18v9v5v5v5v33h-7h-18h-8h-5h-5h-6h-32v-81zM31 297h7h5h8h4h6h6h32h11v6v18v8v6v6v5v32h-21h-5h-29h-4h-20v-81zM134 297h7h18h8h6h5h5h32v6v7v7v4v7v5v32v13h-6
h-18h-8h-5h-5h-6h-33v-81zM240 297h7h4h8h5h6h6h32h13v6v18v8v6v6v5v32h-7h-18h-7h-6h-5h-6h-32v-81zM345 297h6h6h7h6h6h5h32h13v6v18v8v6v6v5v32h-7h-17h-9h-4h-7h-5h-32v-81zM451 297h6h5h8h4h7h5h33h13v6v18v8v6v6v5v32h-7h-18h-8h-5h-5h-6h-32v-81zM31 198h21h6h28h13
h11v7v5v7v5v7v5v32v13h-21h-5h-29h-4h-20v-81zM451 198h6h5h8h4h7h5h33h13v7v17v8v6v6v5v32h-7h-18h-8h-5h-5h-6h-32v-81zM31 98h7h5h8h4h6h6h32h11v6v18v8v5v6v7v31h-21h-5h-29h-4h-20v-81zM451 98h6h5h8h4h7h5h33h13v6v18v8v5v6v7v31h-7h-18h-8h-5h-5h-6h-32v-81zM31 1h21
h6h28h13h11v4v6v8v4v8v4v32v13h-21h-5h-29h-4h-20v-79zM451 1h6h17h9h6h5h5h33v6v5v9v5v5v5v32v12h-7h-18h-8h-5h-5h-6h-32v-79z" />
    <glyph glyph-name="i" unicode="i" horiz-adv-x="352" 
d="M31 598h20h7h27h14h10v20v7v27v5v19h-22h-5h-27h-5h-19v-78zM134 598h6h5h8h4h8h3h34h13v20v7v27v5v19h-7h-18h-8h-5h-5h-6h-32v-78zM238 598h6h4h9h5h6h6h32h13v20v7v27v5v19h-21h-6h-29h-5h-20v-78zM134 497h15h8h6h4h8h28h12v3v8v6v7v6v27v6v19h-7h-18h-8h-5h-5h-6
h-32v-82zM134 398h6h17h9h6h5h5h33v6v18v9v5v5v5v33h-7h-18h-8h-5h-5h-6h-32v-81zM134 297h6h17h9h6h5h5h33v6v7v7v4v7v5v32v13h-7h-18h-8h-5h-5h-6h-32v-81zM134 198h6h5h8h4h8h3h34h13v7v17v8v6v6v5v32h-7h-18h-8h-5h-5h-6h-32v-81zM134 98h6h17h9h6h5h5h33v6v5v8v5v7v4
v33v13h-7h-18h-8h-5h-5h-6h-32v-81zM31 1h20h7h27h14h10v4v6v8v4v8v4v32v13h-22h-5h-27h-5h-19v-79zM134 1h6h5h8h4h8h3h34h13v21v6v27v5v20h-7h-18h-8h-5h-5h-6h-32v-79zM238 1h23h5h28h13h12v21v6v27v5v20h-21h-6h-29h-5h-20v-79z" />
    <glyph glyph-name="j" unicode="j" 
d="M238 598h8h61h12v78h-5h-76v-78zM344 598h7h60h14v78h-6h-75v-78zM449 598h7h5h56h13v78h-6h-75v-78zM344 497h81v5v78h-6h-75v-83zM344 398h81v6v75h-6h-75v-81zM344 298h7h60h14v6v75h-6h-75v-81zM344 198h7h60h14v8v73h-6h-75v-81zM31 99h5h5h58h10v5v76h-78v-81z
M344 99h7h74v67v14h-6h-75v-81zM134 2h6h5h70v78h-7h-74v-78zM238 2h8h61h12v78h-5h-76v-78z" />
    <glyph glyph-name="k" unicode="k" 
d="M31 597h21h6h28h13h11v20v7v28v4v20h-21h-5h-29h-4h-20v-79zM451 597h6h5h8h4h7h5h33h13v20v7v28v4v20h-7h-18h-8h-5h-5h-6h-32v-79zM31 496h7h5h8h4h6h6h32h11v4v8v6v7v5v28v5v19h-21h-5h-29h-4h-20v-82zM345 496h17h6h7h4h6h31h10v4v8v6v7v5v28v5v19h-7h-17h-9h-4h-7
h-5h-32v-82zM31 397h7h5h8h4h6h6h32h11v6v18v8v6v6v4v33h-21h-5h-29h-4h-20v-81zM240 397h7h4h8h5h6h6h32h13v6v18v8v6v6v4v33h-7h-18h-7h-6h-5h-6h-32v-81zM31 296h7h5h8h4h6h6h32h11v6v18v8v6v6v6v31h-21h-5h-29h-4h-20v-81zM134 296h7h18h8h6h5h5h32v6v6v8v4v8v4v32v13
h-6h-18h-8h-5h-5h-6h-33v-81zM240 296h7h4h8h5h6h6h32h13v6v18v8v6v6v6v31h-7h-18h-7h-6h-5h-6h-32v-81zM31 198h21h6h28h13h11v6v5v8v4v8v4v32v14h-21h-5h-29h-4h-20v-81zM345 198h6h6h7h6h6h5h32h13v6v17v9v5v6v6v32h-7h-17h-9h-4h-7h-5h-32v-81zM31 97h7h5h8h4h6h6h32h11
v6v18v9v4v6v6v32h-21h-5h-29h-4h-20v-81zM451 97h6h5h8h4h7h5h33h13v6v18v9v4v6v6v32h-7h-18h-8h-5h-5h-6h-32v-81zM31 0h21h6h28h13h11v4v6v8v4v8v5v32v12h-21h-5h-29h-4h-20v-79zM451 0h6h17h9h6h5h5h33v6v5v8v5v7v5v32v11h-7h-18h-8h-5h-5h-6h-32v-79z" />
    <glyph glyph-name="l" unicode="l" 
d="M31 597h20h7h27h14h10v20v7v28v4v20h-22h-5h-27h-5h-19v-79zM31 496h5h5h9h5h5h6h33h10v4v8v6v7v5v28v5v19h-22h-5h-27h-5h-19v-82zM31 397h5h5h9h5h5h6h33h10v6v18v8v6v6v4v33h-22h-5h-27h-5h-19v-81zM31 296h5h5h9h5h5h6h33h10v6v18v8v6v6v6v31h-22h-5h-27h-5h-19v-81z
M31 198h20h7h27h14h10v6v5v8v4v8v4v32v14h-22h-5h-27h-5h-19v-81zM31 97h5h5h9h5h5h6h33h10v6v18v9v4v6v6v32h-22h-5h-27h-5h-19v-81zM31 0h20h7h27h14h10v4v6v8v4v8v5v32v12h-22h-5h-27h-5h-19v-79zM134 0h6h5h8h4h8h3h34h13v22v6v27v4v20h-7h-18h-8h-5h-5h-6h-32v-79z
M238 0h8h3h9h5h7h4h33h12v22v6v27v4v20h-5h-18h-9h-4h-7h-5h-33v-79zM344 0h7h4h9h4h7h5h31h14v22v6v27v4v20h-6h-19h-8h-4h-6h-5h-33v-79zM449 0h7h17h8h6h5h7h31v6v5v8v5v7v5v32v11h-6h-18h-7h-7h-5h-6h-32v-79z" />
    <glyph glyph-name="m" unicode="m" 
d="M31 598h20h7h27h14h10v20v7v27v6v18h-22h-5h-27h-5h-19v-78zM449 598h7h5h8h4h8h4h32h13v20v7v27v6v18h-6h-18h-7h-7h-5h-6h-32v-78zM31 497h5h5h9h5h5h6h33h10v5v6v6v7v7v26v6v20h-22h-5h-27h-5h-19v-83zM134 497h15h8h6h4h8h28h12v5v6v6v7v7v26v6v20h-7h-18h-8h-5h-5
h-6h-32v-83zM344 497h16h7h7h5h5h31h10v5v6v6v7v7v26v6v20h-6h-19h-8h-4h-6h-5h-33v-83zM449 497h7h17h8h6h5h7h31v16v6v7v5v6v29v14h-6h-18h-7h-7h-5h-6h-32v-83zM31 398h5h5h9h5h5h6h33h10v6v19v8v5v5v6v32h-22h-5h-27h-5h-19v-81zM238 398h8h3h9h5h7h4h33h12v6v19v8v5v5
v6v32h-5h-18h-9h-4h-7h-5h-33v-81zM449 398h7h5h8h4h8h4h32h13v6v19v8v5v5v6v32h-6h-18h-7h-7h-5h-6h-32v-81zM31 298h5h5h9h5h5h6h33h10v6v17v9v5v7v4v33h-22h-5h-27h-5h-19v-81zM238 298h8h3h9h5h7h4h33h12v6v17v9v5v7v4v33h-5h-18h-9h-4h-7h-5h-33v-81zM449 298h7h5h8h4
h8h4h32h13v6v17v9v5v7v4v33h-6h-18h-7h-7h-5h-6h-32v-81zM31 198h20h7h27h14h10v8v5v8v4v6v5v32v13h-22h-5h-27h-5h-19v-81zM449 198h7h5h8h4h8h4h32h13v8v17v7v6v6v5v32h-6h-18h-7h-7h-5h-6h-32v-81zM31 99h5h5h9h5h5h6h33h10v5v19v8v5v6v6v32h-22h-5h-27h-5h-19v-81z
M449 99h7h5h8h4h8h4h32h13v5v19v8v5v6v6v32h-6h-18h-7h-7h-5h-6h-32v-81zM31 2h20h7h27h14h10v4v5v8v4v8v4v32v13h-22h-5h-27h-5h-19v-78zM449 2h7h17h8h6h5h7h31v6v5v8v5v5v5v32v12h-6h-18h-7h-7h-5h-6h-32v-78z" />
    <glyph glyph-name="n" unicode="n" 
d="M31 598h20h7h27h14h10v20v7v27v6v18h-22h-5h-27h-5h-19v-78zM449 598h7h5h8h4h8h4h32h13v20v7v27v6v18h-6h-18h-7h-7h-5h-6h-32v-78zM31 497h5h5h9h5h5h6h33h10v5v6v6v7v7v26v6v20h-22h-5h-27h-5h-19v-83zM449 497h7h17h8h6h5h7h31v16v6v7v5v6v29v14h-6h-18h-7h-7h-5h-6
h-32v-83zM31 398h5h5h9h5h5h6h33h10v6v19v8v5v5v6v32h-22h-5h-27h-5h-19v-81zM134 398h6h17h9h6h5h5h33v6v19v8v5v5v6v32h-7h-18h-8h-5h-5h-6h-32v-81zM449 398h7h5h8h4h8h4h32h13v6v19v8v5v5v6v32h-6h-18h-7h-7h-5h-6h-32v-81zM31 298h5h5h9h5h5h6h33h10v6v17v9v5v7v4v33
h-22h-5h-27h-5h-19v-81zM238 298h8h3h9h5h7h4h33h12v6v17v9v5v7v4v33h-5h-18h-9h-4h-7h-5h-33v-81zM449 298h7h5h8h4h8h4h32h13v6v17v9v5v7v4v33h-6h-18h-7h-7h-5h-6h-32v-81zM31 198h20h7h27h14h10v8v5v8v4v6v5v32v13h-22h-5h-27h-5h-19v-81zM344 198h7h4h9h4h7h5h31h14v8
v17v7v6v6v5v32h-6h-19h-8h-4h-6h-5h-33v-81zM449 198h7h5h8h4h8h4h32h13v8v17v7v6v6v5v32h-6h-18h-7h-7h-5h-6h-32v-81zM31 99h5h5h9h5h5h6h33h10v5v19v8v5v6v6v32h-22h-5h-27h-5h-19v-81zM449 99h7h5h8h4h8h4h32h13v5v19v8v5v6v6v32h-6h-18h-7h-7h-5h-6h-32v-81zM31 2h20h7
h27h14h10v4v5v8v4v8v4v32v13h-22h-5h-27h-5h-19v-78zM449 2h7h17h8h6h5h7h31v6v5v8v5v5v5v32v12h-6h-18h-7h-7h-5h-6h-32v-78z" />
    <glyph glyph-name="o" unicode="o" 
d="M136 597h6h6h7h4h7h5h32h14v21v7v27v5v19h-7h-17h-9h-4h-7h-6h-31v-79zM240 597h7h5h9h4h6h5h34h11v21v7v27v5v19h-6h-17h-9h-5h-6h-4h-34v-79zM346 597h6h5h8h5h7h5h32h13v21v7v27v5v19h-7h-18h-7h-4h-8h-4h-33v-79zM31 497h7h5h8h5h7h4h33h12v3v8v6v7v6v27v5v20h-22h-6
h-28h-5h-20v-82zM451 497h7h18h7h6h6h5h32v16v5v7v5v7v28v14h-6h-18h-8h-5h-6h-6h-32v-82zM31 397h7h5h8h5h7h4h33h12v6v19v7v6v6v5v32h-22h-6h-28h-5h-20v-81zM451 397h7h5h9h4h5h6h32h13v6v19v7v6v6v5v32h-6h-18h-8h-5h-6h-6h-32v-81zM31 297h7h5h8h5h7h4h33h12v6v17v9v6
v6v5v32h-22h-6h-28h-5h-20v-81zM451 297h7h5h9h4h5h6h32h13v6v17v9v6v6v5v32h-6h-18h-8h-5h-6h-6h-32v-81zM31 198h22h6h27h14h12v7v5v7v5v7v4v32v14h-22h-6h-28h-5h-20v-81zM451 198h7h5h9h4h5h6h32h13v7v17v8v5v6v6v32h-6h-18h-8h-5h-6h-6h-32v-81zM31 98h7h5h8h5h7h4h33
h12v5v19v8v5v6v5v33h-22h-6h-28h-5h-20v-81zM451 98h7h5h9h4h5h6h32h13v5v19v8v5v6v5v33h-6h-18h-8h-5h-6h-6h-32v-81zM136 1h6h6h7h4h7h5h32h14v21v6v27v5v19h-7h-17h-9h-4h-7h-6h-31v-78zM240 1h7h5h9h4h6h5h34h11v21v6v27v5v19h-6h-17h-9h-5h-6h-4h-34v-78zM346 1h6h5h8
h5h7h5h32h13v21v6v27v5v19h-7h-18h-7h-4h-8h-4h-33v-78z" />
    <glyph glyph-name="p" unicode="p" 
d="M31 595h68h11v80h-79v-80zM133 595h7h74v80h-81v-80zM239 595h7h4h70v80h-81v-80zM344 595h68h13v80h-6h-75v-80zM31 495h6h62h11v4v7v72h-79v-83zM450 495h6h75v15v68h-6h-75v-83zM31 395h6h62h11v6v75h-79v-81zM450 395h6h5h57h13v6v75h-6h-75v-81zM31 295h6h62h11v7
v74h-79v-81zM133 295h7h74v7v4v57v13h-81v-81zM239 295h7h4h8h62v7v74h-81v-81zM344 295h68h13v7v74h-6h-75v-81zM31 197h68h11v6v75h-79v-81zM31 95h6h62h11v8v73h-79v-81zM31 -2h68h11v6v5v56v12h-79v-79z" />
    <glyph glyph-name="q" unicode="q" 
d="M133 598h81v78h-5h-76v-78zM239 598h81v78h-6h-75v-78zM344 598h7h74v78h-6h-75v-78zM31 497h6h62h11v3v8v71h-79v-82zM450 497h6h75v82h-6h-75v-82zM31 398h6h62h11v6v75h-79v-81zM450 398h6h5h70v6v75h-6h-75v-81zM31 297h6h62h11v6v75h-79v-81zM450 297h6h5h70v6v75
h-6h-75v-81zM31 198h68h11v7v5v56v13h-79v-81zM239 198h81v7v74h-6h-75v-81zM450 198h6h5h70v7v74h-6h-75v-81zM31 98h6h62h11v6v75h-79v-81zM344 98h7h74v6v5v57v13h-6h-75v-81zM133 1h81v21v58h-5h-76v-79zM239 1h81v21v58h-6h-75v-79zM450 1h6h75v6v5v9v59h-6h-75v-79z
" />
    <glyph glyph-name="r" unicode="r" 
d="M31 598h68h10v78h-78v-78zM134 598h11h57h13v78h-7h-74v-78zM238 598h8h73v78h-5h-76v-78zM344 598h7h4h70v78h-6h-75v-78zM31 497h5h63h10v5v78h-78v-83zM449 497h7h74v69v14h-6h-75v-83zM31 398h5h63h10v6v75h-78v-81zM449 398h7h5h56h13v6v75h-6h-75v-81zM31 298h5h63
h10v81h-78v-81zM134 298h6h75v68v13h-7h-74v-81zM238 298h8h73v81h-5h-76v-81zM344 298h7h4h70v81h-6h-75v-81zM31 198h68h10v8v5v55v13h-78v-81zM238 198h8h73v8v73h-5h-76v-81zM31 99h5h63h10v5v76h-78v-81zM344 99h7h74v5v62v14h-6h-75v-81zM31 2h68h10v4v5v56v13h-78
v-78zM449 2h7h17h57v6v5v55v12h-6h-18h-57v-78z" />
    <glyph glyph-name="s" unicode="s" 
d="M136 595h6h6h55h14v21v59h-7h-74v-80zM240 595h7h63h11v21v59h-6h-75v-80zM346 595h68h13v21v59h-7h-74v-80zM31 495h7h5h57h12v4v7v51v21h-81v-83zM451 495h7h74v15v53v15h-6h-75v-83zM31 395h7h5h57h12v6v75h-81v-81zM136 295h6h75v7v74h-7h-74v-81zM240 295h7h63h11v7
v74h-6h-75v-81zM346 295h68h13v7v74h-7h-74v-81zM451 197h7h5h56h13v6v75h-6h-75v-81zM31 95h7h5h8h5h7h4h33h12v8v73h-22h-6h-28h-5h-20v-81zM451 95h7h5h9h47h13v8v73h-6h-75v-81zM136 -2h6h6h55h14v79h-7h-74v-79zM240 -2h7h63h11v79h-6h-75v-79zM346 -2h68h13v79h-7h-74
v-79z" />
    <glyph glyph-name="t" unicode="t" 
d="M31 597h68h11v79h-79v-79zM134 597h7h5h56h13v79h-6h-75v-79zM240 597h7h4h8h49h13v79h-7h-74v-79zM345 597h6h6h56h13v79h-7h-74v-79zM451 597h6h5h57h13v79h-7h-74v-79zM240 496h16h54h11v4v59v19h-7h-74v-82zM240 397h7h4h8h49h13v6v75h-7h-74v-81zM240 296h7h4h8h49
h13v6v75h-7h-74v-81zM240 198h7h4h8h49h13v6v75h-7h-74v-81zM240 97h7h74v6v6v57v12h-7h-74v-81zM240 0h7h4h8h49h13v22v57h-7h-74v-79z" />
    <glyph glyph-name="u" unicode="u" 
d="M31 593h79v78h-79v-78zM451 593h81v78h-7h-74v-78zM31 492h79v5v78h-79v-83zM451 492h81v70v13h-7h-74v-83zM31 392h79v8v73h-79v-81zM451 392h81v8v73h-7h-74v-81zM31 293h79v7v74h-79v-81zM451 293h81v7v74h-7h-74v-81zM31 193h79v7v62v12h-79v-81zM451 193h81v7v74h-7
h-74v-81zM31 94h79v6v75h-79v-81zM451 94h81v6v75h-7h-74v-81zM134 -5h81v81h-6h-75v-81zM240 -5h81v81h-81v-81zM345 -5h81v81h-81v-81z" />
    <glyph glyph-name="v" unicode="v" 
d="M31 597h78v79h-78v-79zM449 597h81v79h-6h-75v-79zM31 496h78v4v78h-78v-82zM449 496h81v82h-6h-75v-82zM31 397h78v6v75h-78v-81zM449 397h81v6v75h-6h-75v-81zM31 296h78v6v75h-78v-81zM449 296h81v6v75h-6h-75v-81zM31 198h78v6v5v70h-78v-81zM449 198h81v6v75h-81
v-81zM134 97h81v81h-7h-74v-81zM344 97h81v81h-81v-81zM238 0h8h73v79h-81v-79z" />
    <glyph glyph-name="w" unicode="w" 
d="M31 597h78v79h-78v-79zM449 597h7h74v79h-6h-75v-79zM31 498h78v7v74h-78v-81zM449 498h7h74v7v74h-6h-75v-81zM238 497h8h73v6v75h-5h-76v-81zM31 397h5h73v6v75h-78v-81zM238 397h8h61h12v6v75h-5h-76v-81zM449 397h7h74v6v75h-6h-75v-81zM31 297h5h73v6v75h-78v-81z
M238 297h8h61h12v6v75h-5h-76v-81zM449 297h7h74v6v75h-6h-75v-81zM31 198h78v7v5v55v14h-78v-81zM134 198h6h62h13v7v74h-7h-74v-81zM344 198h7h4h56h14v7v74h-6h-75v-81zM449 198h7h74v7v74h-6h-75v-81zM31 98h5h73v5v76h-78v-81zM449 98h7h74v5v76h-6h-75v-81zM31 1h78v4
v62v12h-78v-78zM449 1h7h74v6v61v11h-6h-75v-78z" />
    <glyph glyph-name="x" unicode="x" 
d="M31 598h79v78h-79v-78zM451 598h6h5h57h13v78h-7h-74v-78zM31 497h7h5h67v3v8v6v65h-79v-82zM451 497h6h75v16v53v13h-7h-74v-82zM134 398h7h18h56v6v75h-6h-75v-81zM345 398h6h6h56h13v6v75h-7h-74v-81zM240 297h81v6v75h-7h-74v-81zM134 198h7h18h43h13v7v74h-6h-75
v-81zM345 198h6h6h56h13v7v74h-7h-74v-81zM31 98h7h5h67v6v75h-79v-81zM451 98h6h5h57h13v6v75h-7h-74v-81zM31 1h79v4v6v69h-79v-79zM451 1h6h75v6v5v68h-7h-74v-79z" />
    <glyph glyph-name="y" unicode="y" 
d="M31 595h21h6h28h13h11v21v6v28v4v21h-21h-5h-29h-4h-20v-80zM451 595h6h5h8h4h7h5h33h13v21v6v28v4v21h-7h-18h-8h-5h-5h-6h-32v-80zM31 494h7h5h8h4h6h6h32h11v5v6v8v5v7v28v4v20h-21h-5h-29h-4h-20v-83zM451 494h6h17h9h6h5h5h33v16v7v6v5v7v28v14h-7h-18h-8h-5h-5h-6
h-32v-83zM134 395h7h18h8h6h5h5h32v6v18v8v6v7v4v32h-6h-18h-8h-5h-5h-6h-33v-81zM345 395h6h6h7h6h6h5h32h13v6v18v8v6v7v4v32h-7h-17h-9h-4h-7h-5h-32v-81zM240 294h7h4h8h5h6h6h32h13v7v18v9v4v6v5v32h-7h-18h-7h-6h-5h-6h-32v-81zM240 197h7h4h8h5h6h6h32h13v5v18v9v4v6
v6v33h-7h-18h-7h-6h-5h-6h-32v-81zM240 95h7h17h8h6h5h6h32v8v5v8v4v6v5v33v12h-7h-18h-7h-6h-5h-6h-32v-81zM240 -2h7h4h8h5h6h6h32h13v21v8v26v5v19h-7h-18h-7h-6h-5h-6h-32v-79z" />
    <glyph glyph-name="z" unicode="z" 
d="M31 598h20h7h27h14h10v20v7v27v6v18h-22h-5h-27h-5h-19v-78zM134 598h6h5h8h4h8h3h34h13v20v7v27v6v18h-7h-18h-8h-5h-5h-6h-32v-78zM238 598h8h3h9h5h7h4h33h12v20v7v27v6v18h-5h-18h-9h-4h-7h-5h-33v-78zM344 598h7h4h9h4h7h5h31h14v20v7v27v6v18h-6h-19h-8h-4h-6h-5
h-33v-78zM449 598h7h5h8h4h8h4h32h13v20v7v27v6v18h-6h-18h-7h-7h-5h-6h-32v-78zM449 497h7h17h8h6h5h7h31v16v6v7v5v6v29v14h-6h-18h-7h-7h-5h-6h-32v-83zM344 398h7h4h9h4h7h5h31h14v6v19v8v5v5v6v32h-6h-19h-8h-4h-6h-5h-33v-81zM238 298h8h3h9h5h7h4h33h12v6v17v9v5v7v4
v33h-5h-18h-9h-4h-7h-5h-33v-81zM134 198h6h5h8h4h8h3h34h13v8v17v7v6v6v5v32h-7h-18h-8h-5h-5h-6h-32v-81zM31 99h5h5h9h5h5h6h33h10v5v19v8v5v6v6v32h-22h-5h-27h-5h-19v-81zM31 2h20h7h27h14h10v4v5v8v4v8v4v32v13h-22h-5h-27h-5h-19v-78zM134 2h6h5h8h4h8h3h34h13v20v6
v29v4v19h-7h-18h-8h-5h-5h-6h-32v-78zM238 2h8h3h9h5h7h4h33h12v20v6v29v4v19h-5h-18h-9h-4h-7h-5h-33v-78zM344 2h7h4h9h4h7h5h31h14v20v6v29v4v19h-6h-19h-8h-4h-6h-5h-33v-78zM449 2h7h17h8h6h5h7h31v6v5v8v5v5v5v32v12h-6h-18h-7h-7h-5h-6h-32v-78z" />
    <glyph glyph-name="braceleft" unicode="{" horiz-adv-x="508" 
d="M265 661h8h5h62h15v89h-7h-83v-89zM382 661h89v6v5v78h-89v-89zM148 550h18h59h13v5v87h-8h-82v-92zM148 440h8h82v7v19v10v5v8v5v36h-8h-82v-90zM33 328h7h69h12v8v19v9v6v6v7v35h-23h-8h-57v-90zM148 219h8h4h63h15v7v20v63h-8h-82v-90zM148 106h8h82v9v5v9v5v7v6v36
v13h-8h-82v-90zM265 -1h8h5h62h15v24v37v6v21h-7h-83v-88zM382 -1h6h5h62h16v24v37v6v21h-89v-88z" />
    <glyph glyph-name="bar" unicode="|" horiz-adv-x="145" 
d="M112 78h-81v-79h81v79zM112 179h-81v-84h81v84zM112 278h-81v-81h81v81zM112 378h-81v-81h81v81zM112 477h-81v-81h81v81zM112 578h-81v-81h81v81zM112 675h-81v-80h81v80z" />
    <glyph glyph-name="braceright" unicode="}" horiz-adv-x="457" 
d="M215 78h-7h-5h-55h-14v-79h6h75v79zM109 78h-78v-4v-6v-69h78v79zM319 179h-15h-53h-13v-5v-79h8h73v84zM319 278h-5h-76v-7v-17v-8v-6v-6v-5v-32h8h73v81zM424 378h-6h-63h-10v-6v-17v-9v-5v-6v-6v-32h20h8h51v81zM319 477h-5h-4h-57h-15v-5v-19v-57h8h73v81zM319 578
h-5h-76v-7v-5v-8v-5v-7v-5v-32v-12h8h73v81zM215 675h-7h-5h-55h-14v-22v-34v-4v-20h6h75v80zM109 675h-5h-4h-57h-12v-22v-34v-4v-20h78v80z" />
    <glyph glyph-name="asciitilde" unicode="~" 
d="M133 557h7h5h9h4h7h4h33h12v21v7v27v5v18h-5h-18h-9h-5h-5h-6h-33v-78zM31 456h6h5h8h5h5h6h33h11v6v6v5v8v7v26v5v20h-22h-5h-28h-5h-19v-83zM239 456h16h7h6h6h6h29h11v6v6v5v8v7v26v5v20h-6h-19h-7h-5h-6h-5h-33v-83zM344 359h7h5h8h5h6h5h32h13v22v6v28v4v19h-6h-18
h-8h-5h-6h-6h-32v-79zM450 359h6h5h8h5h7h5h32h13v22v6v28v4v19h-6h-19h-8h-5h-5h-6h-32v-79z" />
    <glyph glyph-name=".null" horiz-adv-x="79" 
 />
  </font>
</defs>
</svg>
